<svg xmlns="http://www.w3.org/2000/svg" viewBox="0 0 800.86 349.16"><defs><style>.cls-1{fill:none;stroke:#000;stroke-miterlimit:10;stroke-width:3px;}</style></defs><title>head_2_</title><g id="Layer_2" data-name="Layer 2"><g id="Layer_1-2" data-name="Layer 1"><path d="M605.13,211.17a78.37,78.37,0,0,0,15.61,10.6,59.81,59.81,0,0,0,6.74,2.74c4.18,1.44,10.28,5.42,7.23,10.43-4.57,7.52-15.91.44-20.85-3.21-2.93-2.17-6.3-4.87-8.16-8.06-2.36-4-1.42-8.09.14-12.19.38-1-2.17-2.32-2.51-1.45-3.39,8.87-.3,14.6,6.61,20.49,5.2,4.44,14.8,11.14,22.15,9.62,6.76-1.4,7.91-9.47,3.08-13.59-3.29-2.8-7.88-3.52-11.76-5.17-6.24-2.67-11.74-6.69-16.91-11-1.06-.89-2.86-.44-1.37.82Z"/><path d="M602.67,210.84c-.23,3.46-5.53,6.11-7.35,9.08-2.05,3.35-3.47,7.65-2.52,11.58.86,3.53,3.31,6.31,5.81,8.83,3,3,6,7,9.72,9.11,5.09,2.94,12.39,1.95,17.26-1,2.85-1.71,10.72-6.39,8.36-10.64-.45-.82-3.08-1.57-2.29-.14,1.77,3.19-6.94,8.31-9,9.48a15.64,15.64,0,0,1-6.55,1.88c-5.79.53-8.88-2.45-12.72-6.28-5.56-5.54-10.44-10.66-6.82-18.94,1.37-3.13,3.41-5.2,5.92-7.45,1.42-1.26,2.69-2.47,2.82-4.47.07-1-2.54-2.15-2.61-1.06Z"/><path d="M600.88,213.71c-3.72,3.72-7.49,7.39-11.16,11.15-2.35,2.42-5.27,5.62-5.83,9.08-.46,2.8,1.37,6.87,2.13,9.53,1.08,3.87,3.39,6,6.18,8.77,4.78,4.82,10.41,8.84,17.68,7.91,3.42-.43,6-2.52,8.48-4.73,2.09-1.85,5-3.7,5.32-6.71.1-1-2.5-2.17-2.61-1.07-.38,3.88-8.13,9.48-11.72,10.38-8.06,2-18.57-6.31-20.8-13.93-.62-2.13-1.35-4.44-1.81-6.61-.66-3.08,1.17-6.08,3.06-8.5,3.93-5,9.09-9.32,13.59-13.82.61-.61-1.74-2.22-2.51-1.45Z"/><path d="M583.7,237c-7.72,8.22-6.77,18.59,1.85,25.86,3,2.48,8.47,3.95,12.24,3.72,4.25-.25,7.13-3.84,9.9-6.66.6-.62-1.76-2.23-2.52-1.45-2.11,2.16-4.57,5.25-7.69,6-4.65,1.13-10.71-2.18-13.34-5.55-5.43-7-3.56-14.48,2.08-20.48.6-.64-1.77-2.24-2.52-1.45Z"/><path d="M608.91,213.32c3.56-3.55,6.87-7.06,6.76-12.38-.14-7.26-2.84-14-2.61-21.38.18-6.06.36-12.12.67-18.18.38-7.62-.31-15.14,1.18-22.68,5-25.53,25.19-55.17,53.9-56,15.72-.43,31.87,3.6,44.53,13.08,6,4.53,12,9.51,16,16s6,13.5,7.23,20.83c2.22,13.48,1.6,26.65-3.94,39.34a62.66,62.66,0,0,1-24.14,27.86,121.19,121.19,0,0,1-23,10.91c-3.52,1.25-6.57,2.5-10.36,2.71-2.61.14-5.17.44-7.77.77-6,.77-13.14-.45-18.82,2.24-5.53,2.61-9.71,7-13.92,11.34-.6.62,1.76,2.23,2.52,1.45,4.67-4.77,10-10.51,16.82-12,6-1.31,12.79-1,18.95-1.65,2.85-.29,5.92.08,8.69-.76,3-.9,6-2.23,8.89-3.37a125.17,125.17,0,0,0,20.28-9.91,63.39,63.39,0,0,0,24.71-28.83,80.88,80.88,0,0,0,4.86-18.44c1.17-7.41-.12-15.1-1.41-22.42a52.42,52.42,0,0,0-18-31.83c-11.07-9.55-23-15.6-37.49-18-13.63-2.31-26.05-1.26-38.23,5.56C633.76,94,624,106.68,618.29,118.34A78.29,78.29,0,0,0,611.68,141c-1.26,8.46-.58,17.52-.92,26.1-.29,7.18-1,14.69.45,21.75.92,4.37,2.87,10.24,1.42,14.75-1.07,3.31-3.84,5.85-6.23,8.24-.61.61,1.74,2.22,2.51,1.45Z"/><path d="M728.38,85.27c4.9-4.3,10.25-7.79,14.9-12.44q8-8,15.91-15.92c.61-.61-1.74-2.22-2.51-1.45L742,70.16c-5,5-10.59,8.77-15.84,13.37-.86.75,1.52,2.36,2.23,1.74Z"/><path d="M761,122.54c3.05-3.37,11.52-4.18,15.76-5.43,4.05-1.2,8.09-2.42,12.11-3.71,3.13-1,6.84-3,10.08-3.46l-2.15-1.67c-.1.18-.19.37-.28.55-.46.93,2.07,2.34,2.51,1.46l.28-.56c.47-.94-1.51-1.75-2.16-1.67-3.62.47-7.34,2.58-10.86,3.71q-7.41,2.38-14.89,4.53c-4,1.16-10,1.53-12.91,4.8-.6.67,1.79,2.25,2.51,1.45Z"/><path d="M755.76,185.17a11.08,11.08,0,0,0,5.5,2.71c4.37,1.06,8.63,1.76,12.94,3.15a138.91,138.91,0,0,1,14.92,5.77c3.54,1.61,7,4.25,10.85,5,1.85.39.4-1.59-.65-1.81-3.44-.72-6.93-3.37-10.17-4.84-3.83-1.73-7.75-3.31-11.72-4.7a97.26,97.26,0,0,0-10.51-3.23c-2.65-.61-7.24-.46-9.26-2.45-.75-.74-3.24-1-1.9.35Z"/><path d="M704.89,243.55l-.8.21c-.46.13-.48.52-.24.88,3.42,5.23,9.31,9.18,14.14,13,3.28,2.59,6.34,5.39,9.51,8.12,2.92,2.51,6.47,4.49,9.25,7.12.75.71,3.26.94,1.89-.36-2.15-2-4.71-3.45-7-5.29-3-2.41-5.8-5.12-8.77-7.61-2.74-2.31-5.64-4.41-8.39-6.71-.19-.16-7.87-7.45-7.75-7.48,1.26-.34-.91-2.13-1.81-1.89Z"/><path d="M586.47,159.41q.82.84,1.68,1.65l1.63-.59c-7-5.92-16.44-8.33-23.78-13.87-3.76-2.84-7.32-5.9-11-8.81a8.18,8.18,0,0,0-4.41-2.21c-1.56-.21.37,1.79,1.27,1.92,1.93.26,6.48,5,7.92,6.17,3,2.33,5.94,4.76,9.11,6.83,6.2,4,13.84,6,19.52,10.8.73.62,2.9.64,1.63-.59q-.85-.81-1.68-1.65c-.74-.75-3.23-1-1.89.35Z"/><path d="M597.87,89.42c1.3-2.46,0-5-1.39-7.13-2.37-3.86-5.07-7.39-7.2-11.43a84.18,84.18,0,0,1-10-34.59c0-.71-2.17-2.23-2.57-1.26-.11.27-.22.55-.34.82-.4,1,2.15,2.33,2.52,1.45.11-.27.22-.55.34-.82l-2.57-1.26a79.74,79.74,0,0,0,7.2,29.18,99.37,99.37,0,0,0,7,13c1.82,2.75,6.34,7.08,4.49,10.59-.48.9,2,2.33,2.51,1.45Z"/><path d="M679.46,56.49c-2.33-5.11-2-10.75-1.5-16.21.64-6.51,1.66-13,2.82-19.46,1-5.63,3.89-14-1.29-18.41-1-.89-2.86-.44-1.37.82,2.86,2.41,1.54,8.46,1,11.62-.73,4.19-1.54,8.36-2.2,12.56-1.42,9-3.93,19.84,0,28.47.37.82,3,1.74,2.53.61Z"/><path d="M635.18,42.16c-.59,3.07,1.8,6.35,3.38,8.77,2.18,3.36,3.92,7.57,6.79,10.34.75.73,3.25.95,1.9-.35-2.41-2.32-4-6.22-5.88-9.05-1.58-2.38-4.16-5.61-3.58-8.65.18-.92-2.4-2.18-2.61-1.06Z"/><path d="M710.67,53.62a104.17,104.17,0,0,0-6.13,13.49c-.39,1,2.16,2.33,2.51,1.46a102.43,102.43,0,0,1,6.14-13.5c.5-.87-2-2.33-2.52-1.45Z"/><path d="M758.66,95.19c-1.88,1.47-3.73,3-5.66,4.38a30,30,0,0,0-4.91,3.73c-.6.66,1.78,2.25,2.51,1.45,1.5-1.63,3.63-2.69,5.4-4s3.26-2.54,4.89-3.82c.88-.69-1.48-2.32-2.23-1.73Z"/><path d="M760.06,152.82c3.39-.38,6.78-.55,10.18-.59,3,0,6.31-.54,9.2,0l-1.58-1.63-.33.51c-.53.83,2,2.32,2.52,1.45l.32-.51c.46-.71-1.1-1.54-1.57-1.63-3.18-.64-6.6-.18-9.83-.14a106.46,106.46,0,0,0-10.71.61c-1.23.14.89,2,1.8,1.89Z"/><path d="M717.41,204.32c.79,2.82,4,4.43,6.25,6s4.34,3.28,6.53,4.93c2.84,2.14,6.53,3.66,9,6.15.74.75,3.22,1,1.89-.35-3.47-3.5-8.2-5.57-12.08-8.63-2.37-1.87-8.26-4.57-9.06-7.45-.25-.88-2.89-1.88-2.54-.61Z"/><path d="M597.12,125.75c3.47-2.29-2.29-5.18-4.1-6-4.08-1.93-15.83-4.35-15.95-9.63,0-1-2.64-2.1-2.62-1.06.1,4.54,6.09,7.08,9.59,8.67,2,.91,13.1,4.84,10.85,6.33-.9.59,1.41,2.27,2.23,1.73Z"/><path d="M662.58,111.83c-10.85-10.39-21,6.71-26.23,15.06a74.73,74.73,0,0,0-9,20.71c-1,3.89-2.78,10.51.06,14,7.24,8.91,13.9-17.94,15.37-21.41,1.38-3.24,2.74-6.83,4.9-9.66,2.3-3,5.53-5.65,8.21-8.34,2.1-2.11,9.56-6.91,6.08-10.36-.75-.74-3.24-1-1.9.35,1.69,1.68-15.11,16.86-16.54,19.53a97.33,97.33,0,0,0-5.42,12.91c-1.61,4.38-2.73,10.14-5.45,13.92-1.17,1.62-1.61,2.71-3.07,1.22-1.22-1.25-.92-2.23-.77-3.87a42.44,42.44,0,0,1,1.1-6.92,75.71,75.71,0,0,1,5.16-14.34,74.43,74.43,0,0,1,8.3-12.83c3.44-4.32,10.48-16.15,17.31-9.62.75.72,3.25.95,1.89-.35Z"/><path d="M195.73,211.17a78.37,78.37,0,0,1-15.61,10.6,60.58,60.58,0,0,1-6.74,2.74c-4.18,1.44-10.29,5.42-7.23,10.43,4.57,7.52,15.91.44,20.85-3.21,2.93-2.17,6.29-4.87,8.16-8.06,2.36-4,1.42-8.09-.15-12.19-.38-1,2.18-2.32,2.52-1.45,3.38,8.87.3,14.6-6.61,20.49-5.2,4.44-14.8,11.14-22.16,9.62-6.75-1.4-7.9-9.47-3.07-13.59,3.29-2.8,7.88-3.52,11.76-5.17,6.24-2.67,11.74-6.69,16.91-11,1-.89,2.86-.44,1.37.82Z"/><path d="M198.19,210.84c.23,3.46,5.52,6.11,7.34,9.08,2.06,3.35,3.48,7.65,2.52,11.58-.86,3.53-3.31,6.31-5.81,8.83-3,3-6,7-9.71,9.11-5.09,2.94-12.4,1.95-17.26-1-2.85-1.71-10.72-6.39-8.36-10.64.45-.82,3.08-1.57,2.29-.14-1.77,3.19,6.94,8.31,9,9.48a15.6,15.6,0,0,0,6.54,1.88c5.8.53,8.89-2.45,12.73-6.28,5.55-5.54,10.44-10.66,6.82-18.94-1.37-3.13-3.42-5.2-5.93-7.45-1.41-1.26-2.69-2.47-2.82-4.47-.06-1,2.55-2.15,2.62-1.06Z"/><path d="M200,213.71c3.72,3.72,7.49,7.39,11.15,11.15,2.35,2.42,5.28,5.62,5.84,9.08.45,2.8-1.38,6.87-2.13,9.53-1.09,3.87-3.39,6-6.18,8.77-4.78,4.82-10.42,8.84-17.68,7.91-3.42-.43-6-2.52-8.48-4.73-2.1-1.85-5-3.7-5.33-6.71-.09-1,2.51-2.17,2.62-1.07.38,3.88,8.13,9.48,11.72,10.38,8.06,2,18.57-6.31,20.8-13.93.62-2.13,1.35-4.44,1.81-6.61.65-3.08-1.17-6.08-3.06-8.5-3.94-5-9.1-9.32-13.59-13.82-.61-.61,1.74-2.22,2.51-1.45Z"/><path d="M217.15,237c7.72,8.22,6.78,18.59-1.85,25.86-2.94,2.48-8.47,3.95-12.23,3.72-4.25-.25-7.14-3.84-9.9-6.66-.61-.62,1.75-2.23,2.52-1.45,2.11,2.16,4.57,5.25,7.69,6,4.65,1.13,10.7-2.18,13.33-5.55,5.44-7,3.56-14.48-2.07-20.48-.6-.64,1.77-2.24,2.51-1.45Z"/><path d="M192,213.32c-3.57-3.55-6.87-7.06-6.77-12.38.15-7.26,2.85-14,2.62-21.38-.18-6.06-.37-12.12-.67-18.18-.39-7.62.31-15.14-1.18-22.68-5-25.53-25.19-55.17-53.9-56-15.72-.43-31.87,3.6-44.54,13.08-6,4.53-12,9.51-16,16a56.91,56.91,0,0,0-7.23,20.83C62,146.13,62.65,159.3,68.19,172a62.66,62.66,0,0,0,24.14,27.86,121.11,121.11,0,0,0,23,10.91c3.53,1.25,6.58,2.5,10.36,2.71,2.62.14,5.18.44,7.78.77,6,.77,13.13-.45,18.82,2.24,5.53,2.61,9.71,7,13.91,11.34.61.62-1.75,2.23-2.51,1.45-4.67-4.77-10-10.51-16.82-12-6-1.31-12.79-1-19-1.65-2.85-.29-5.92.08-8.69-.76-3-.9-6-2.23-8.89-3.37a124.77,124.77,0,0,1-20.28-9.91,63.41,63.41,0,0,1-24.72-28.83,80.34,80.34,0,0,1-4.85-18.44c-1.17-7.41.11-15.1,1.41-22.42a52.42,52.42,0,0,1,18-31.83c11.07-9.55,23-15.6,37.49-18,13.62-2.31,26-1.26,38.22,5.56,11.48,6.43,21.29,19.1,26.95,30.76A78.92,78.92,0,0,1,189.18,141c1.26,8.46.58,17.52.92,26.1.29,7.18,1,14.69-.46,21.75-.92,4.37-2.86,10.24-1.41,14.75,1.07,3.31,3.84,5.85,6.23,8.24.61.61-1.74,2.22-2.51,1.45Z"/><path d="M72.48,85.27C67.57,81,62.23,77.48,57.57,72.83L41.67,56.91c-.61-.61,1.74-2.22,2.51-1.45l14.69,14.7c5,5,10.58,8.77,15.84,13.37.85.75-1.52,2.36-2.23,1.74Z"/><path d="M39.83,122.54c-3-3.37-11.52-4.18-15.76-5.43C20,115.91,16,114.69,12,113.4c-3.13-1-6.84-3-10.09-3.46L4,108.27l.28.55c.46.93-2.07,2.34-2.51,1.46l-.28-.56c-.47-.94,1.51-1.75,2.16-1.67,3.62.47,7.34,2.58,10.86,3.71q7.41,2.38,14.89,4.53c4,1.16,10,1.53,12.91,4.8.6.67-1.79,2.25-2.51,1.45Z"/><path d="M45.1,185.17a11.08,11.08,0,0,1-5.5,2.71c-4.37,1.06-8.63,1.76-13,3.15a140.55,140.55,0,0,0-14.92,5.77c-3.54,1.61-7,4.25-10.84,5-1.85.39-.41-1.59.64-1.81,3.44-.72,6.94-3.37,10.17-4.84,3.84-1.73,7.76-3.31,11.73-4.7a97.26,97.26,0,0,1,10.51-3.23c2.65-.61,7.23-.46,9.26-2.45.75-.74,3.24-1,1.9.35Z"/><path d="M96,243.55l.81.21c.45.13.47.52.24.88-3.42,5.23-9.31,9.18-14.14,13-3.28,2.59-6.35,5.39-9.51,8.12-2.92,2.51-6.47,4.49-9.25,7.12-.76.71-3.26.94-1.89-.36,2.15-2,4.71-3.45,7-5.29,3-2.41,5.8-5.12,8.76-7.61,2.74-2.31,5.65-4.41,8.4-6.71.19-.16,7.87-7.45,7.75-7.48-1.27-.34.91-2.13,1.8-1.89Z"/><path d="M214.39,159.41q-.82.84-1.68,1.65l-1.63-.59c7-5.92,16.44-8.33,23.78-13.87,3.75-2.84,7.32-5.9,11-8.81a8.18,8.18,0,0,1,4.41-2.21c1.56-.21-.38,1.79-1.27,1.92-1.93.26-6.48,5-7.92,6.17-3,2.33-6,4.76-9.12,6.83-6.19,4-13.83,6-19.51,10.8-.74.62-2.9.64-1.63-.59l1.68-1.65c.74-.75,3.23-1,1.89.35Z"/><path d="M203,89.42c-1.3-2.46,0-5,1.38-7.13,2.38-3.86,5.08-7.39,7.21-11.43a84.18,84.18,0,0,0,10-34.59c0-.71,2.16-2.23,2.57-1.26l.33.82c.41,1-2.15,2.33-2.51,1.45l-.34-.82,2.57-1.26A79.74,79.74,0,0,1,217,64.38a99.37,99.37,0,0,1-7,13c-1.83,2.75-6.35,7.08-4.49,10.59.48.9-2.05,2.33-2.51,1.45Z"/><path d="M121.39,56.49c2.34-5.11,2-10.75,1.51-16.21-.64-6.51-1.67-13-2.83-19.46-1-5.63-3.89-14,1.3-18.41,1-.89,2.86-.44,1.36.82-2.85,2.41-1.54,8.46-1,11.62.72,4.19,1.53,8.36,2.2,12.56,1.41,9,3.93,19.84,0,28.47-.37.82-3.05,1.74-2.54.61Z"/><path d="M165.68,42.16c.59,3.07-1.8,6.35-3.38,8.77-2.18,3.36-3.93,7.57-6.79,10.34-.76.73-3.25.95-1.9-.35,2.4-2.32,4-6.22,5.87-9.05,1.59-2.38,4.16-5.61,3.58-8.65-.17-.92,2.41-2.18,2.62-1.06Z"/><path d="M90.18,53.62a102.9,102.9,0,0,1,6.14,13.49c.39,1-2.16,2.33-2.52,1.46a101.09,101.09,0,0,0-6.13-13.5c-.5-.87,2-2.33,2.51-1.45Z"/><path d="M42.2,95.19c1.88,1.47,3.73,3,5.66,4.38a30,30,0,0,1,4.91,3.73c.6.66-1.79,2.25-2.52,1.45-1.49-1.63-3.62-2.69-5.39-4S41.59,98.2,40,96.92c-.88-.69,1.47-2.32,2.23-1.73Z"/><path d="M40.79,152.82a101.63,101.63,0,0,0-10.17-.59c-3,0-6.31-.54-9.2,0L23,150.64c.11.17.22.34.32.51.54.83-1.95,2.32-2.51,1.45l-.33-.51c-.45-.71,1.11-1.54,1.58-1.63,3.18-.64,6.6-.18,9.82-.14a106.49,106.49,0,0,1,10.72.61c1.22.14-.9,2-1.81,1.89Z"/><path d="M83.45,204.32c-.79,2.82-4,4.43-6.25,6s-4.34,3.28-6.53,4.93c-2.84,2.14-6.53,3.66-9,6.15-.75.75-3.23,1-1.9-.35,3.48-3.5,8.21-5.57,12.09-8.63,2.36-1.87,8.26-4.57,9.06-7.45.25-.88,2.89-1.88,2.54-.61Z"/><path d="M203.74,125.75c-3.47-2.29,2.29-5.18,4.1-6,4.07-1.93,15.83-4.35,15.95-9.63,0-1,2.64-2.1,2.62-1.06-.11,4.54-6.09,7.08-9.59,8.67-2,.91-13.1,4.84-10.85,6.33.9.59-1.41,2.27-2.23,1.73Z"/><path d="M138.28,111.83c10.85-10.39,21,6.71,26.23,15.06a75,75,0,0,1,9,20.71c1,3.89,2.78,10.51-.06,14-7.25,8.91-13.9-17.94-15.37-21.41-1.39-3.24-2.74-6.83-4.9-9.66-2.3-3-5.53-5.65-8.21-8.34-2.1-2.11-9.56-6.91-6.08-10.36.75-.74,3.23-1,1.9.35-1.69,1.68,15.1,16.86,16.54,19.53a97.27,97.27,0,0,1,5.41,12.91c1.61,4.38,2.74,10.14,5.46,13.92,1.16,1.62,1.61,2.71,3.06,1.22,1.23-1.25.93-2.23.78-3.87a43.57,43.57,0,0,0-1.11-6.92,75.68,75.68,0,0,0-5.15-14.34,75,75,0,0,0-8.3-12.83c-3.44-4.32-10.48-16.15-17.31-9.62-.75.72-3.25.95-1.89-.35Z"/><path d="M380.91,224.57c.48-6.91-1.72-12.85-8-16.19-7.15-3.81-15.27-5.35-22.36-9.28-6.9-3.83-12.61-10.52-17.46-16.66a101.85,101.85,0,0,1-12.25-19.83c-6.47-13.81-11.21-30.58-9.72-45.93,1.68-17.21,10.82-32.83,22-45.63,23.42-26.73,66.92-36.8,99.12-20.82,7.78,3.86,14.69,9,21.41,14.43a58.35,58.35,0,0,1,7.77,7.3,45.61,45.61,0,0,1,4,5.86c1.25,2,2.86,3.72,4.09,5.79,5,8.38,6.76,17.23,8.11,26.78.67,4.74,1.16,9.51,1.49,14.28.35,5,1,10.49.39,15.52-1,8.46-5.24,17.46-9.06,25a118.83,118.83,0,0,1-13.73,21.06,127,127,0,0,1-19.1,18.91c-6.29,5.05-13,8.14-11.79,17.39.09.75,2.35.24,2.24-.6-.73-5.75,1.73-9.23,6.22-12.5,3.23-2.35,6.36-4.84,9.36-7.46A127.48,127.48,0,0,0,459.9,184.9a118.21,118.21,0,0,0,20.78-40.37c2.58-9,.94-19.5-.08-28.73-1.07-9.77-2.23-20-6.75-28.87-2-4-4.53-7.26-6.87-11a43.47,43.47,0,0,0-7.58-9.1A120.33,120.33,0,0,0,439.25,52c-28.45-16.58-66.76-12.7-93.46,5.82-13.64,9.45-24.7,23.62-31.37,38.76-7.08,16.06-6.71,32.36-2.23,49.05a104.52,104.52,0,0,0,25.13,45,52.7,52.7,0,0,0,9.84,8.67c4,2.52,8.53,4.11,13,5.7,4.29,1.53,8.82,3,12.67,5.48,4.88,3.13,6.23,9,5.85,14.44-.06.91,2.19.47,2.24-.28Z"/><path d="M378.8,224.88c2.25,3,7.62,3.14,11,3.47,5.1.49,9.95.91,15-.22,5.43-1.22,11-1.55,16.37-2.82,2.48-.57,5.49-1.16,6.52-3.74.28-.72-2-.46-2.24.28-1,2.43-6.44,2.64-8.6,3.17-3.6.89-7.37.84-11,1.67a41,41,0,0,1-13.25.54c-3.39-.28-9.4-.18-11.69-3.22-.46-.61-2.62.16-2.08.87Z"/><path d="M378.56,223.74c-2.64,3.21-1.48,10.35-1.11,14.11.47,4.64.55,11.15,3,15.27s7.1,5.57,11.42,6.67c5.21,1.33,11,2.68,16.36,2.43a29.77,29.77,0,0,0,13.38-3.83,15.37,15.37,0,0,0,7.86-11,51.89,51.89,0,0,0,.73-14.82c-.25-3.35-.35-8.22-2.36-11-.42-.58-2,0-2.16.58l-.09.34,1-.7-.18.05c-1.35.35-1.06,1.47.3,1.12.68-.18,1.05-.4,1.24-1.09l-2.16.58c1.61,2.23,1.89,6.43,2.1,9.08a86.22,86.22,0,0,1-.12,12.24c-.31,4.9-1.56,9.67-5.69,12.69a25.57,25.57,0,0,1-17.73,4.3,83.88,83.88,0,0,1-12.47-2.58c-4.25-1.25-8.57-3.16-10.11-7.7-1.3-3.84-1.57-8.49-2-12.49-.39-3.74-1.8-11,.88-14.2.62-.76-1.62-.62-2.09,0Z"/><path d="M383.27,256.71c-.79,2.31-.1,6.22.51,8.55a5.8,5.8,0,0,0,4,4.5c2.93.92,6.27.87,9.29,1.09a69.23,69.23,0,0,0,10.68.23c3-.25,5.85-1.2,8.77-1.76,2-.38,4.36-.66,6.12-1.67,4.85-2.77,4.32-8.68,4.32-13.43,0-.69-2.24-.27-2.24.6,0,5.51.43,11.38-6.35,12.9-4.4,1-9,2.2-13.53,2.15s-9.33,0-13.69-1c-3.37-.75-4.83-2.13-5.33-5.52-.31-2.07-1-4.93-.32-6.94.26-.76-2-.48-2.24.28Z"/><path d="M393.63,263.64l-.12-.09-1.93,1a7.38,7.38,0,0,0,4.54,1c.46-.06,1.11-.28,1.28-.76l.12-.36a.33.33,0,0,0-.08-.3c-1.16-1.16-3.08-1.63-4.48-2.46a42.15,42.15,0,0,0-4.26-2.74L386.91,260c2,.8,4,2.3,6.23,1.79.37-.09,1-.39,1-.86-.16-1.24-3-2.63-3.87-3.12s-1.9-1.09-3-.53c-3.17,1.68,1.66,5.58,3.22,6.56.5.31,2.45-.22,1.94-1a17.56,17.56,0,0,0-5.14-4.56c-.49-.32-1.4,0-1.79.36-2.26,1.82,2.67,7.77,4.74,8.09.38.06,2.08-.19,1.8-.91-.86-2.23-2.23-4.76-4.67-5.45a1.69,1.69,0,0,0-1.81.75c-1.48,3.25,3.29,7.46,6.38,7.55,2.91.08,2.48-2,1.08-3.67s-3.78-2.6-5.08-.05c-1.15,2.23.31,3.63,2.53,2.85a.89.89,0,0,0,.68-.76c0-1.3-2-2.21-2.77-3.27-1.1-1.58-1.19-3.57-2.2-5-.38-.55-2.47.07-2.17.74,1.44,3.17,10,14.63,13.42,7.37,2.53-5.33-7.26-4.37-9.73-2.53a.42.42,0,0,0,.21.79c2,.27,4,.79,6,1a41.84,41.84,0,0,1,5.46.61l1.12-1.25c-2.9-.24-6.45-2.59-8.95-4-.5-.29-2.44.19-1.93,1,1,1.6,4.06,2.14,5.73,2.35,1.38.17,4.89-.43,5.85.4l.89-1c-1.73.41-8.31-2.13-10-3.5l-1.47,1.08c2.06-.1,4.27.7,6.29,1.08,1.42.27,3.48.18,4.76.91l.74-1.11c-2.93.77-6.67-1.51-9.56-1.91-.43-.06-2.61.74-1.58,1.15,4.13,1.66,9,.69,13.09,2.24l1.19.23c.69,1,.54,1.46-.47,1.37-.78.61-3.23.46-4.13.53a51,51,0,0,1-8.82-.34c-.29.43-.58.85-.88,1.27,4.32.34,8.83.22,13.1.72l.53-1.17c-4.78,1.5-10-.08-14.89.38-.38,0-1.63.47-1.19,1.06,1.08,1.44,4.18,1.24,5.76,1.29,2,.06,4-.06,6-.18.74,0,2.81-.6,3.51-.27l.45-1c-3.22,1.21-7.22.87-10.19,2.76-.83.53-.19,1,.55.95,4.45-.37,8.64-2.78,12.83-4.19,2.16-.73,6-1.11,7.47-3,.33-.44-.29-.64-.61-.66-5.47-.43-11,1.84-16.43,2.29v1.18c6.28-1.51,12.71-2.39,19-3.88,1.36-.32,1.06-1.42-.3-1.12-3.47.78-6.86,1.33-10.38,1.78-1,.13-6,1.34-6.78.66l-.89,1a47.45,47.45,0,0,1,13.41-.39c.86.07,2.38-1.15.88-1.27a51.33,51.33,0,0,0-14.59.54c-.24.05-1.36.57-.89,1,1.28,1.18,5.26.1,6.73-.07a126.25,126.25,0,0,0,12.81-2.13l-.3-1.12c-6.28,1.49-12.71,2.37-19,3.88-1,.25-1.33,1.29,0,1.18,5.23-.43,10.61-2.67,15.87-2.26l-.61-.66c.21-.29.62,0,.11-.08s-1.11.38-1.44.49c-1.88.68-3.79,1.31-5.68,2-3.52,1.25-7.13,3.31-10.9,3.63l.54.95c2.71-1.72,6.67-1.36,9.69-2.5.32-.12,1.08-.71.45-1-1.06-.5-2.21-.11-3.32,0-2.17.22-10.1,1.46-11.67-.64l-1.19,1.06c5.09-.49,10.49,1.07,15.49-.5.41-.13,1.62-1,.54-1.17-4.44-.52-9.1-.41-13.59-.77-.86-.06-2.38,1.14-.88,1.27a51,51,0,0,0,13.52-.22c1.81-.32,3.89-.53,4.66-2.43a.28.28,0,0,0-.07-.29c-1.2-1.52-4.29-1.46-6-1.71-3.33-.48-7.14-.47-10.29-1.73L391.49,262c3.72.51,7.43,2.81,11.23,1.81.38-.09,1.47-.69.74-1.1-1.45-.82-3.55-.73-5.17-1-2.24-.42-4.51-1.25-6.79-1.14-.27,0-2.15.53-1.48,1.07,1.81,1.46,4.68,2.19,6.82,3.1a8.07,8.07,0,0,0,5.56.64c.22-.05,1.39-.58.89-1-2.87-2.45-9.06,1.18-11.58-2.74l-1.93,1c3,1.72,6.35,3.92,9.86,4.22.59,0,2.37-.92,1.12-1.25-2.43-.64-5-.52-7.46-1a6.46,6.46,0,0,0-3-.24c-1.2.37,1.05.12,1.16.14,1,.16,3.56.06,4.17,1.27q-1.27,2.69-2.67,1.16a5.92,5.92,0,0,1-1.15-1,25,25,0,0,1-5.55-7.08l-2.17.73c.78,1.14.94,2.91,1.67,4.17.62,1.06,3.14,2.8,3.15,3.88l.68-.76c1.53-.54-.59-2.43,1.35-1,.59.44,1.26,1.47.95,2.22l1.27-.76c-2.54.33-6.52-3.94-5.36-6.49l-1.81.75c1.92.54,3.18,3.19,3.81,4.83l1.81-.91c-1.23-.19-5.51-5.54-4.31-6.51l-1.79.36a17.19,17.19,0,0,1,4.83,4.35l1.94-1c-.73-.45-4.14-3.54-3.47-3.69a20.29,20.29,0,0,1,3.05,2.47l1-.86c-1,.21-3.22-1.39-4.14-1.76-.65-.25-2.73.68-1.79,1.09s8.25,5,8.24,5.05l1.28-.76a5,5,0,0,1-3.07-.83c-.51-.28-2.58.47-1.93,1l.12.09c.63.48,2.7-.4,2.08-.88Z"/><path d="M414.08,265.8a45.61,45.61,0,0,1-7.95,1.55,22.32,22.32,0,0,0-4.33.45c-.43.13-1.61,1-.54,1.17,5.66.84,12.37-.09,17.95-1.13.43-.08,2.08-1,.84-1.23a38.79,38.79,0,0,0-8.41-.45c-1.7,0-3.25.08-4.58,1.19-.11.09-.3.33-.23.49,2,4.44,16.37,1,14.65-2.1-1-1.87-7.69-1.09-9-1-3.11.32-8.52,1.16-10.62,3.86-.24.31.06.58.36.63,3.59.69,7.33-1,10.64-2.26,2.8-1.06,7.14-2.13,9.19-4.53.25-.3-.07-.59-.36-.64-3.46-.54-7.23.69-10.67,1.2-2.11.31-4.89,0-6.78,1.14-.83.51-.19,1,.54.95,3.43-.36,6.94-.95,10.34-1.56,1.25-.22,3.39-.44,4-1.75.11-.22.13-.46-.15-.57-4.11-1.64-9.46,0-13.7.17-.09.4-.19.8-.28,1.2a93.11,93.11,0,0,1,14-2l-.54-.95c-2.77,1.87-7.9,2.35-9.63,5.52-.33.6.49.69.89.64a20.18,20.18,0,0,0,8-3.11c1.06-.62,3.87-1.85,4-3.32,0-.63-.9-.51-1.27-.42-3.4.75-6.11,3.5-9.47,4.3l.6,1c3.51-1.74,9.83-2.58,12.32-5.92.23-.3,0-.59-.35-.63a3.23,3.23,0,0,0-3.39,1.92c-.31.61.48.67.89.64,1.68-.09,2.55-1.3,3.26-2.73.51-1-1.7-.57-2.09-.05-1.5,2-2.45,4.4-3.93,6.46l2.08.05c.77-1.5,2.83-5.4,4.38-6.18l-1.56-.16c.54,3-2.54,6.17-4.31,8.31l2.16-.11c.56-2.12,2.22-6,4.15-7.39l-1.74.11c1.07,1.67-.94,6.1-1.95,7.44l2.09.05c.33-.64.65-1.29.95-1.94.41-.85-1.08-.66-1.48-.48-3.16,1.37-6,3.44-9.46,4.16l1.27.26c-.59-1.41,9.62-6.18,9.8-6.25l-1.34-.65a26.2,26.2,0,0,1-4.52,3.06,3.53,3.53,0,0,1-3.4,1.07,9.61,9.61,0,0,1,2.87-2.25c1.33-.77-.68-1-1.39-.66a32.56,32.56,0,0,1-6.5,2.6c-2.19.57-3.48.74-.85.29,3.77-.66,7.37-2.18,11.2-2.46v-1.19a89.56,89.56,0,0,1-12.14,2.51c-1.46.14-4.85.65-1.94-.32,1-.33,2-.55,3-.79,3.42-.79,6.91-1.22,10.33-2l-.84-.89a21.52,21.52,0,0,1-7.29,1.93c-1.7.24-4.8,1.14-6.41.29l-.45,1c2.13-.84,4.9-.53,7.16-.85,2.69-.38,5.34-1,8.08-.8l-.61-.66c-1.56,3-8.8,4.59-11.69,5.48-1.29.39-2.59.56-3.5,1.61-.26.29.07.59.36.63,3.72.62,7.26-.65,10.94-1.12-.1-.36-.2-.72-.29-1.08-4,1.52-8.83,1.87-13,1.84-.55,0-2.4,1.07-1.12,1.25a28.39,28.39,0,0,0,7.92,0l-.54-.95a16,16,0,0,1-5.31.8c-.56,0-2.39,1.08-1.12,1.24a24.56,24.56,0,0,0,13.11-2.06c2.4-1,7.52-3.13,8.06-6.11.18-1-1.89-.2-2.17.11l-.53.61c-.64.71,1.6.59,2.09,0l.53-.6-2.17.12c-.41,2.34-4.88,4.12-6.7,4.91a20.37,20.37,0,0,1-10.85,1.76l-1.12,1.25a17,17,0,0,0,7.57-1.4c.88-.46.17-1.06-.54-1a25.42,25.42,0,0,1-6.86,0l-1.12,1.25c4.88,0,10.21-.44,14.79-2.2,1-.38.73-1.21-.29-1.08-2.27.29-4.5.84-6.76,1.2-4,.63-1.66.32-.82,0,1-.43,2.13-.71,3.18-1.08,3.06-1.08,8.41-2.27,10.08-5.41.24-.46-.21-.63-.61-.66-3.14-.22-6.16.5-9.25.91-2.58.34-5.31.14-7.75,1.09-.34.14-1.05.69-.45,1,2.23,1.16,5.59.19,7.9-.14a26.39,26.39,0,0,0,9-2.51c1.12-.6-.19-1-.85-.89-2.32.53-17.24,1.8-16.83,5.14,0,.18.29.29.43.31,5.82,1.12,12.13-1.26,17.72-2.6,1.05-.26,1.34-1.28,0-1.19-3.54.27-7.06,1.4-10.5,2.25-1.71.43-4,.74-5.12,2.29-.2.3,0,.59.36.63,4.12.48,9-1.84,12.49-3.69l-1.39-.66c-1.31.76-5.87,3.58-3.28,4.94,1.17.61,4.31-1.18,5.2-1.65a30.08,30.08,0,0,0,6.32-4.14c.92-.83-.91-.8-1.34-.64-1.36.5-12.18,5.33-11.16,7.77.19.46.9.34,1.27.26,3.66-.77,6.67-2.89,10-4.36l-1.49-.48c-.3.65-.62,1.29-.95,1.93-.51,1,1.7.56,2.09.05,1.39-1.85,3.38-6.12,1.94-8.37-.29-.46-1.43-.11-1.73.11-2.51,1.74-4.23,5.42-5,8.33-.25,1,1.9.21,2.17-.12,2-2.39,5.06-5.61,4.46-9-.1-.57-1.29-.3-1.56-.16-2.46,1.23-4.38,4.7-5.58,7.05-.52,1,1.7.58,2.08.05,1.48-2.06,2.44-4.43,3.94-6.46l-2.09-.05a7.08,7.08,0,0,1-.86,1.54l.89.65c.87-1.69-4.56.86-5,1-2.2.92-4.47,1.58-6.61,2.64-1.18.58-.47,1.28.59,1,3.37-.81,6.09-3.55,9.47-4.3l-1.27-.42c-.13,2.12-8.27,4.8-9.37,4.91l.89.65c1.55-2.84,6.41-3.2,8.93-4.91.81-.54.22-1-.54-.95a98.34,98.34,0,0,0-14.61,2.11c-.7.17-1.52,1.26-.29,1.2,1.92-.09,3.81-.37,5.72-.56A25.43,25.43,0,0,1,415,262c.64.07,1.79-.23.71.31a12,12,0,0,1-3.31.47c-2.41.34-4.82.87-7.24,1.13l.54.95c.87-.53,4.14-.43,5.09-.56,2.12-.31,4.31-.81,6.44-.95,1-.06,1.85-.64.78.25a10.33,10.33,0,0,1-2.58,1.14,42.72,42.72,0,0,1-8.43,3c-2.18.43-1.9.13,0-.56a21.83,21.83,0,0,1,4.59-1.12c.44,0,7.13-.73,7.57.28s-2.86,1.92-3.42,2a10.91,10.91,0,0,1-4.3.07v-1c1.32-.56,6,.14,7.31.42l.84-1.23c-5.25,1-11.59,1.94-16.89,1.15l-.53,1.17c1.67-.51,3.83-.31,5.57-.55a46.63,46.63,0,0,0,6.71-1.45c1.33-.38,1.05-1.51-.3-1.12Z"/><path d="M376.87,231c1.8.33,3.67,2.06,5.49,2.58a39.56,39.56,0,0,0,7.25,1.17c5.05.48,10.19-.14,15.26.06,4.3.16,8.76.86,13,0,3.13-.62,7.77-.54,10.49-2.36,1.31-.87-.7-1-1.39-.66l-.58.3c-1.33.68.65,1,1.39.66l.58-.3-1.39-.66c-1.12.75-2.89.56-4.15.77-2.39.39-4.71,1.15-7.14,1.33-4.21.3-8.47-.39-12.68-.4-4.63,0-9.33.34-13.93-.22a23.19,23.19,0,0,1-6.86-1.49c-1.55-.7-2.31-1.71-4-2-.71-.13-2.63,1-1.37,1.22Z"/><path d="M379.4,239.79c8.25,4.29,19.2,3.18,28.21,3.71a62.7,62.7,0,0,0,12.85-.84c2.93-.4,6-.27,8.69-1.6.93-.45.77-1.17-.29-1.08l-.86.08c-.4,0-1.18.29-1.28.76l-.05.28c-.17.85,2.09.49,2.24-.28l.06-.28-1.28.76.87-.08c-.1-.36-.2-.72-.29-1.08-2.11,1-5.18.94-7.5,1.28a58.15,58.15,0,0,1-12.29.81c-8.71-.51-19.34.61-27.3-3.52-.64-.34-2.7.61-1.78,1.08Z"/><path d="M379.06,249a26.7,26.7,0,0,0,12.73,3.87c4.76.27,9.58.51,14.34.7a71,71,0,0,0,13.52-.62c2.8-.42,6.34-.44,8.74-2,.44-.3.63-.77,0-.94l-.25-.07c-.71-.19-2.63.88-1.37,1.22l.24.06v-.94c-1.83,1.22-5.63,1.36-7.84,1.62a69.71,69.71,0,0,1-14,.29c-8.28-.68-17,.29-24.32-4.23-.62-.39-2.69.52-1.78,1.08Z"/><path d="M471.76,54.57c.22.18,11.8-9.65,12.9-10.59,1.4-1.18,2.74-2.43,4.1-3.65.69-.62,2-2.35,2.75-2.52,1.4-.3,1.16.43,2,1.76S495,41.88,495.81,43c.66.95,2.8,3.35,2.43,4.45l.46.27a16.47,16.47,0,0,0-2.52.37c-2.57.55-5.1,1.44-7.62,2.2-5.8,1.74-11.86,4.47-17.94,4.82-.78,0-2,1.26-.59,1.26h1c.84,0,2.38-1.27.87-1.27h-1c-.2.42-.39.84-.59,1.25,7.64-.44,15.29-4,22.57-6.13,2-.59,4.52-.66,6.43-1.43.37-.16.8-.19,1.05-.57,1.07-1.64-1.58-4.82-2.47-6.09-1.11-1.6-2.65-5.91-4.55-6.47-1.72-.51-3.29,1.49-4.29,2.44-6.2,5.85-13.3,10.63-19.41,16.56-.14.14-.37.44-.14.62l.18.15c.62.5,2.7-.38,2.08-.88Z"/><path d="M306.62,71.61c0,.73,0,.58.5,1.1l1.93-1c-2.91-1.87-6-3.34-8.84-5.38-2.43-1.74-4.84-3.52-7.33-5.19s-5.06-3.07-7.64-4.5c-1.13-.63-2.8-.72-2.19-2.5.2-.59,2.44-1.72,2.92-2.06a37.89,37.89,0,0,1,8.9-5.05c2-.68,2.13.26,3.28,2a37.87,37.87,0,0,1,2.5,4.71c2.7,5.89,4,12.23,6.73,18.11.34.75,2.3.22,2.24-.6l0-.25c-.06-.73-2.31-.25-2.24.6l0,.25,2.24-.6c-1.81-3.94-2.9-8-4.32-12.06a78.13,78.13,0,0,0-5.62-12c-.88-1.59-1.33-2.68-3.31-2.29-1.65.32-3.46,1.77-4.93,2.52-1.81.93-3.62,1.85-5.33,2.95-1.53,1-5.55,2.7-5.76,4.68-.18,1.76,3.67,3,4.76,3.64a138.67,138.67,0,0,1,12.43,8.11c3.13,2.26,6.51,4,9.73,6,.48.31,2.55-.35,1.93-1-.11-.27-.23-.54-.34-.82-.05-.72-2.3-.26-2.24.6Z"/><path d="M295.36,149.28c-9.56,3.26-19.45,2.26-29.23,4.15-1.65.31-6.19.41-7.29,2-.65.95-.13,1.24.29,2.06,1,2,2.37,3.74,3.14,6s.86,5.26,3.76,5c2.71-.22,5.85-3.12,8-4.62,4.06-2.89,8.38-5.35,12.47-8.17a34.73,34.73,0,0,1,6.72-3.79,12.39,12.39,0,0,0,3.23-1.57c1-.77-1.22-.81-1.8-.37-2,1.52-5.2,2.25-7.38,3.63-3,1.86-6,3.69-8.85,5.65s-5.48,3.92-8.33,5.66c-1.49.92-3.26,2.46-4.81.52-.9-1.13-1.24-4-1.81-5.41a15.63,15.63,0,0,0-1.67-2.9c-1.19-1.79-.54-1.48,1.33-1.9a79.06,79.06,0,0,1,11.68-1.71c7.21-.52,14-.8,20.89-3.17,1.3-.44,1-1.57-.3-1.12Z"/><path d="M506.72,141.8H504.6c-.29.42-.58.85-.88,1.27,7.43-.11,14.82-.7,22.21-1.34,1.86-.16,3.73-.3,5.58-.58,1.49-.22,2.09-.88,2.25.49.11.93-.73,3-1,3.88a47.22,47.22,0,0,1-2.5,6.07,19.44,19.44,0,0,1-2.66,4.44c-1,1.26-1,1.38-2.14.41-2.34-1.9-4.66-3.84-7.16-5.56a53.42,53.42,0,0,0-7-4.58c-2-.94-6-2-7.23-4.11l-1.56.94,1.11-.06c.82,0,2.37-1.35.87-1.27l-1.1,0c-.27,0-1.9.34-1.56.94,1.92,3.39,7.87,4.48,10.85,6.61,2.19,1.57,4.46,3.06,6.64,4.68a37.78,37.78,0,0,1,3.81,3c.55.53.91,1.36,1.61,1.73,2.33,1.25,4-1.37,5.12-3,3.35-4.67,5-10.28,6.69-15.71a.33.33,0,0,0-.08-.3c-.75-.71-1.25-.61-2.26-.47-2.9.4-5.74,1-8.68,1.22-7,.6-13.94,1.15-20.94,1.25-.83,0-2.39,1.27-.88,1.27h2.13c.84,0,2.38-1.27.87-1.27Z"/><path d="M311.23,214.85l.19-.19-1.8-.36a126.76,126.76,0,0,0-14.45,17.57c-.84,1.23-2.75,3-1.48,4.32,1,1,3.51.91,4.81,1,2.75.26,5.53,1.23,8.25,1.37a2.41,2.41,0,0,0,2.55-1c.65-1,.49-3.12.59-4.23.16-1.87.18-3.75.32-5.62.16-2.1.34-4.19.58-6.28.23-1.94.06-4.19,1-5.9l-2.16.11,0,.25c-.07.9,2.18.47,2.24-.28l0-.25c.07-.93-1.9-.38-2.16.12-1.07,2-.94,4-1.13,6.23-.23,2.73-.59,5.45-.73,8.19-.06,1.1.27,6.57-.51,7.17s-5.32-.92-6.12-1c-1.19-.14-2.78.11-3.88-.36-2-.87-1.47-1.71-.44-3.25.82-1.22,1.68-2.42,2.55-3.59a130.51,130.51,0,0,1,12-14.23c.92-.92-1.28-.89-1.8-.36l-.19.18c-.92.92,1.27.9,1.8.37Z"/><path d="M485.53,193.48c2,3.71,5.85,6,9.62,7.53,2.11.86,4.31,1.49,6.48,2.17,1.85.59,5.41,1.16,6.84,2.67.12-.25.23-.51.35-.77-.54.36-1.59.2-2.25.51a8.59,8.59,0,0,0-2.64,2.28c-1.46,1.57-9,9.28-10.79,7.48-.76-.77-.56-4-1-5.18-.86-2.18-1.86-4.23-2.59-6.47a34,34,0,0,1-1.77-6.38c-.17-1.42.1-2.62-.81-3.84-.45-.6-2.62.16-2.08.88.77,1,.56,2.06.65,3.22a18.34,18.34,0,0,0,1,4.25,70.63,70.63,0,0,0,2.56,7.19,19,19,0,0,1,1.44,3.64c.23,1.1-.22,2.6.21,3.59s.48,1.12,1.63,1.15c2.93.07,7.18-3.45,9.33-5.09,1.78-1.37,2.94-3.3,4.66-4.69,1.27-1,2.6-1,3.88-1.87.22-.15.61-.49.34-.77-1.93-2-6.2-2.58-8.81-3.41-5.07-1.61-11.32-3.64-14-8.69-.4-.76-2.57,0-2.24.6Z"/><path d="M331.07,114.08c1.63,8,3.42,15.91,5.46,23.79,1,3.75,2.06,7.47,3.07,11.22.66,2.5,1.21,5.89,3,7.91.36.4,1.72,0,1.66-.57a5.58,5.58,0,0,0-1-2.59c-.31-.48-2,.08-1.6.67a4.67,4.67,0,0,1,.91,2.38l1.66-.57c-1.91-2.18-2.38-6-3.11-8.66-1-3.78-2.12-7.55-3.09-11.35-1.93-7.52-3.63-15.09-5.18-22.69-.12-.59-1.85-.16-1.72.46Z"/><path d="M330.24,104a1.84,1.84,0,0,0-1.41,2,2.52,2.52,0,0,0,1.51,2.33,1.36,1.36,0,0,0,1.48-.4c.66-.86,1.41-2.43,1-3.52-.54-1.53-3-.71-2.83.77.05.57,1.78.2,1.72-.46a1.5,1.5,0,0,1,0-.3l-1,.06c1.21.48,0,2.76-.5,3.41l1.49-.39a1.87,1.87,0,0,1-1.11-1.39,2.92,2.92,0,0,1,0-.78c0-.11,0-.21.05-.32,0-.31.3-.27-.15-.15.25-.07.84-.3.74-.66s-.74-.26-1-.2Z"/><path d="M351,110.29c-.84,1.84-.19,2.55.4,4.34.7,2.08,1,4.43,1.48,6.57a135.53,135.53,0,0,1,2.47,13.55c.54,4.29,1,8.57,1.48,12.88.33,3.23.75,7.1,2.51,9.93.27.45,1.56,0,1.65-.44a10.67,10.67,0,0,0,.11-2.65c0-.54-1.75-.2-1.72.46a8.8,8.8,0,0,1-.11,2.4l1.66-.44c-1.79-2.88-2.11-7-2.43-10.26-.41-4.13-.91-8.23-1.44-12.34A111.49,111.49,0,0,0,355,122.38c-.47-2-.94-4-1.38-6s-1.88-4.11-.88-6.29c.23-.51-1.46-.34-1.72.22Z"/><path d="M351.49,109.62c3.45,0,6.88-.25,10.18,1a21.78,21.78,0,0,1,7.07,4.2c3.67,3.33,5.78,9.87,6.24,14.73a25.34,25.34,0,0,1-5.22,17.29c-1.6,2.16-3.17,4.92-5.23,6.66-1.73,1.45-3.93,1.51-5.6,3l1.55,0,.06-.35c.13-.65-1.6-.37-1.71.22l-.07.35c-.14.7,1.32.23,1.55,0,1.24-1.11,2.72-1.1,4.07-1.84a9.93,9.93,0,0,0,2.27-1.92,57,57,0,0,0,5.6-7.42A25.54,25.54,0,0,0,376.57,128c-.79-5.46-3.16-11.67-7.69-15-5.18-3.86-10.46-4.35-16.72-4.29-.64,0-1.82,1-.67,1Z"/><path d="M399.3,112.31c-4-.34-7.88-.34-11.86-.56-1.35-.07-3.73-.58-4.74.79-.56.75-.33,1.74-.31,2.6.06,2.28-.08,4.57.05,6.85.26,4.37.49,8.68.55,13.06s-.57,8.95-.6,13.45c0,1.93-.64,5.37.68,7.1,1.6,2.1,5.51,1.16,7.71,1.16,2,0,4.06.12,6.08.09,1.51,0,2.9-.57,4.39-.62.64,0,1.82-1,.67-1a30.8,30.8,0,0,0-3.3.46,34.83,34.83,0,0,1-4.9.06c-2.48,0-8.67,1-9.5-1.87-.66-2.29-.13-6-.08-8.27.06-3.1.55-6.17.58-9.27.06-6.84-.61-13.6-.61-20.43,0-1.34-.34-3,1.42-3.33a20.89,20.89,0,0,1,3.52.16c3.24,0,6.36.24,9.58.52.66,0,1.82-.88.67-1Z"/><path d="M382.4,134.24c2.28.2,4.54.85,6.85,1s4.86,0,7.29,0c.64,0,1.82-1,.66-1a75.28,75.28,0,0,1-7.66-.06c-2.19-.2-4.31-.79-6.48-1-.66-.06-1.82.87-.66,1Z"/><path d="M410.74,148.92a3.86,3.86,0,0,0-.63,1.05l1.72-.21c.51-7.49,0-15.14,0-22.64,0-4.41-.16-8.83,0-13.23a47.84,47.84,0,0,1,.49-5.49,9.83,9.83,0,0,1,.45-2.47c.42-.72-.25-.54.44,0,1.2.87,2.14,3.1,2.92,4.35,1.19,1.9,2.31,3.85,3.39,5.82,1.78,3.24,3.45,6.55,5.13,9.84s3.47,6.78,5.08,10.24c1.37,3,2.49,6.09,4.35,8.8l1.59-.68-.33-.37c-.4-.44-2,.18-1.6.67l.34.38c.37.41,2-.09,1.59-.68-2.49-3.65-3.95-8.09-5.88-12.06s-4-8-6.07-11.93c-1.81-3.48-3.67-6.92-5.72-10.26-1-1.6-2.83-6.15-5.18-5.88-2,.23-2,3-2.22,4.48a74.72,74.72,0,0,0-.51,12.24c.05,4.52,0,9,0,13.56,0,5.16.32,10.42,0,15.56-.05.78,1.52.23,1.72-.21l.51-.8c.46-.6-1.26-.48-1.6,0Z"/><path d="M410.15,132.14a54.77,54.77,0,0,0,9.56-1c1.18-.22,2.35-.46,3.52-.72,1.34-.3,3.43-1.39,4.73-1.44.64,0,1.82-1,.67-1-2.25.09-4.32,1.28-6.53,1.74a57.91,57.91,0,0,1-11.28,1.4c-.64,0-1.82,1-.67,1Z"/><path d="M459.4,110c-3.28-5.23-8.49-8.17-14.12-7.64-4.62.44-9.92,3.65-10,9.66-.12,8.3,7.6,11.71,13,14.49,4.81,2.48,9.6,5.78,10.18,12.44.75,8.63-6.1,15.33-13.51,12.36-.68-.28-2.24.47-1,1,9.8,3.94,21.24-7,14.93-18.81-3.48-6.51-10.64-7.66-15.87-11.45-4.38-3.18-7.9-9.42-4-14.84,5.14-7.17,14.48-3.27,18.48,3.13.39.62,2.32.32,1.93-.3Z"/><path d="M386.42,26.69c-1.61-1.07-2.37-5-3.13-6.72-1.13-2.48-2.44-4.86-3.8-7.22-1.25-2.18-2.55-4.33-3.75-6.53-1.39-2.54.7-2,2.61-2.49,1.39-.36,5.14-2.61,6.17-2.15,1.24.55,1.09,4.44,1.12,5.48.24,6.76-.71,13.45-.86,20.19l2.24-.44v-.25c0-.69-2.24-.27-2.24.6v.25c0,.68,2.22.27,2.24-.44.17-7.92,1.85-16.17.57-24.07-.22-1.38-.32-2.59-1.76-2.87-.8-.16-1.51.39-2.2.62a45.28,45.28,0,0,1-7.09,2.25c-1.16.2-3.34.14-3.81,1.6s1.86,4.26,2.47,5.31a99.5,99.5,0,0,1,6.62,12.55c.76,1.9,1,4.21,2.81,5.41.61.41,2.68-.49,1.79-1.08Z"/><path class="cls-1" d="M138,323.06a1665.9,1665.9,0,0,1,504.6-16.25c38,4.59,79.21,12.3,104.06,41.38"/></g></g></svg>