<svg height="511pt" viewBox="-40 1 511 511.99894" width="511pt" xmlns="http://www.w3.org/2000/svg"><path d="m427.773438 165.0625-160.667969-160.667969c-2.816407-2.8125-6.628907-4.394531-10.609375-4.394531h-200.828125c-30.421875 0-55.167969 24.75-55.167969 55.167969v401.664062c0 30.417969 24.746094 55.167969 55.167969 55.167969h321.328125c30.421875 0 55.167968-24.75 55.167968-55.167969v-281.164062c0-3.980469-1.578124-7.792969-4.390624-10.605469zm0 0" fill="#fef4f5"/><path d="m427.773438 165.0625-160.667969-160.667969c-2.816407-2.8125-6.628907-4.394531-10.609375-4.394531h-40.164063v512h160.664063c30.421875 0 55.167968-24.75 55.167968-55.167969v-281.164062c0-3.980469-1.578124-7.792969-4.390624-10.605469zm0 0" fill="#d5eded"/><path d="m427.773438 165.0625-160.667969-160.667969c-4.292969-4.289062-10.742188-5.574219-16.347657-3.25-5.605468 2.320313-9.261718 7.789063-9.261718 13.855469v120.5c0 30.417969 24.75 55.167969 55.167968 55.167969h120.5c6.066407 0 11.539063-3.65625 13.859376-9.261719 2.320312-5.605469 1.039062-12.054688-3.25-16.34375zm0 0" fill="#76e2f8"/><path d="m334.371094 415.417969c-6.980469 0-13.230469-4.894531-14.683594-11.996094-8.480469-41.460937-40.765625-73.691406-82.238281-82.109375-8.121094-1.648438-13.363281-9.566406-11.71875-17.6875 1.648437-8.117188 9.5625-13.355469 17.6875-11.714844 26.027343 5.285156 49.769531 18.046875 68.65625 36.90625 18.886719 18.855469 31.683593 42.574219 37.007812 68.589844 1.65625 8.117188-3.574219 16.042969-11.691406 17.703125-1.015625.207031-2.027344.308594-3.019531.308594zm0 0" fill="#0065a3"/><path d="m98.261719 415.601562c-.988281 0-1.992188-.097656-3-.300781-8.121094-1.648437-13.363281-9.566406-11.71875-17.6875 5.292969-26.058593 18.078125-49.824219 36.976562-68.726562 18.898438-18.898438 42.664063-31.683594 68.722657-36.976563 8.121093-1.644531 16.035156 3.597656 17.683593 11.714844 1.648438 8.117188-3.59375 16.035156-11.714843 17.683594-41.542969 8.4375-73.832032 40.730468-82.265626 82.273437-1.445312 7.113281-7.699218 12.019531-14.683593 12.019531zm0 0" fill="#008adf"/><path d="m192.234375 319.199219h-72.300781c-8.285156 0-15-6.714844-15-15 0-8.28125 6.714844-15 15-15h72.300781c8.28125 0 15 6.71875 15 15 0 8.285156-6.71875 15-15 15zm0 0" fill="#008adf"/><path d="m312.730469 319.203125h-72.300781c-8.28125 0-15-6.71875-15-15 0-8.285156 6.71875-15 15-15h72.300781c8.285156 0 15 6.714844 15 15 0 8.28125-6.714844 15-15 15zm0 0" fill="#0065a3"/><path d="m255.429688 280.101562c0-8.28125-6.714844-14.996093-14.996094-15l-48.199219-.003906c-3.980469 0-7.792969 1.582032-10.605469 4.394532-2.816406 2.8125-4.394531 6.628906-4.394531 10.605468v48.203125c0 3.976563 1.578125 7.792969 4.390625 10.605469 2.816406 2.8125 6.628906 4.394531 10.609375 4.394531l48.199219-.003906c3.980468 0 7.796875-1.582031 10.609375-4.390625 2.8125-2.816406 4.390625-6.628906 4.390625-10.609375zm0 0" fill="#a8ebfa"/><path d="m95.832031 265.097656c-21.558593.007813-39.097656 17.550782-39.097656 39.105469s17.539063 39.09375 39.097656 39.097656h.003907c21.558593 0 39.097656-17.539062 39.097656-39.101562 0-21.558594-17.539063-39.097657-39.101563-39.101563zm0 0" fill="#a8ebfa"/><g fill="#76e2f8"><path d="m336.828125 265.101562c-21.554687 0-39.09375 17.539063-39.097656 39.101563.003906 21.558594 17.542969 39.097656 39.101562 39.09375h.007813c21.554687 0 39.09375-17.539063 39.09375-39.09375-.003906-21.558594-17.539063-39.101563-39.105469-39.101563zm0 0"/><path d="m255.429688 280.101562c0-8.28125-6.714844-14.996093-14.996094-15h-24.101563v78.195313h24.101563c3.980468 0 7.796875-1.582031 10.609375-4.390625 2.8125-2.816406 4.390625-6.628906 4.390625-10.609375zm0 0"/></g></svg>