<svg xmlns="http://www.w3.org/2000/svg" viewBox="0 0 532.22 500"><defs><style>.cls-1{fill:#d4e1f4;opacity:0.44;}.cls-2{fill:#0635c9;}.cls-3{fill:#1ae5be;}.cls-4{fill:#00d7df;}.cls-5{fill:#46f8ff;}.cls-6{fill:#eb1d83;}.cls-7{fill:#f05ca5;}.cls-8{fill:#dce1ea;}.cls-9{fill:#f3f5fb;}.cls-10{fill:none;}.cls-11{fill:#00cc76;}.cls-12{fill:#00ff94;}.cls-13{fill:#ced2e1;}.cls-14{fill:#e9ecf4;}.cls-15{fill:#00429d;}.cls-16{fill:#005fe1;}.cls-17{fill:#f37bb6;}</style></defs><title>Inspiration_1</title><g id="Layer_2" data-name="Layer 2"><g id="Layer_1-2" data-name="Layer 1"><path class="cls-1" d="M326.53,69C238,82.46,193.61,21.05,144.53,46c-23.84,12.12-49.2,44.85-53,137-42.12,66.53-40,105.05-30,128,18.51,42.63,63.82,41,137,112,26.08,25.28,26,32.81,43.12,39.9,43,17.8,109-2.69,138.38-46,36.58-53.88-12.57-100,22.5-149.87,36.81-52.37,116.11-37.36,127.56-83.16,1-3.9,8.61-10.69-12.61-51.89C492,82.48,499.58,34.06,468.73,17.47,434.45-1,405,57.07,326.53,69Z"/><path class="cls-2" d="M233.51,484.43a7.79,7.79,0,0,0,0,15.57h60a7.79,7.79,0,1,0,0-15.57Z"/><path class="cls-2" d="M323.58,438.84a7.78,7.78,0,0,0-7.79-7.78H211.27a7.79,7.79,0,0,0,0,15.57H315.79A7.79,7.79,0,0,0,323.58,438.84Z"/><path class="cls-2" d="M312.46,465.53a7.78,7.78,0,0,0-7.79-7.78H222.39a7.78,7.78,0,1,0,0,15.56h82.28a7.78,7.78,0,0,0,7.79-7.78Z"/><path class="cls-2" d="M345.61,334.21c2.79-8.06,8.15-17.53,13.83-27.56,12.14-21.46,25.9-45.78,25.9-73.33a119.41,119.41,0,0,0-36-85.51,121.72,121.72,0,0,0-171.68.15,119.81,119.81,0,0,0-36,85.64c0,27.4,13.72,51.55,25.83,72.86,5.73,10.1,11.15,19.63,13.88,27.7a275.63,275.63,0,0,1,11,45.76c.3,21.66,17.93,40,38.77,40h64.56c20.84,0,38.47-18.36,38.77-40A270,270,0,0,1,345.61,334.21Zm-26.52,44a9.39,9.39,0,0,0-.07,1.19c0,13.23-10.85,25-23.21,25H231.25c-12.36,0-23.21-11.78-23.21-25a9.82,9.82,0,0,0-.06-1.09,284.46,284.46,0,0,0-11.8-49.07c-3.21-9.47-9-19.65-15.09-30.41-11.16-19.63-23.8-41.9-23.8-65.19A104.35,104.35,0,0,1,188.65,159a106.16,106.16,0,0,1,149.78-.13,104,104,0,0,1,31.34,74.43c0,23.45-12.69,45.87-23.88,65.66-6,10.66-11.73,20.73-15,30.14A279.31,279.31,0,0,0,319.09,378.17Z"/><path class="cls-3" d="M255.75,7.78V89.26a7.79,7.79,0,0,0,15.57,0h0V7.78a7.79,7.79,0,0,0-15.57,0Z"/><path class="cls-3" d="M158.29,118.83a7.78,7.78,0,1,0,13.59-7.59l-.1-.17L140,55.83a7.78,7.78,0,1,0-13.57,7.62s0,.09.08.14Z"/><path class="cls-3" d="M36,162l55,31.89a7.78,7.78,0,1,0,7.8-13.47h0l-55-31.89a7.79,7.79,0,1,0-8,13.33Z"/><path class="cls-3" d="M360.14,121.7a7.79,7.79,0,0,0,10.63-2.87l31.77-55.24a7.78,7.78,0,1,0-13.41-7.9.64.64,0,0,0-.08.14l-31.78,55.24a7.78,7.78,0,0,0,2.87,10.62Z"/><path class="cls-3" d="M435,194.89a7.7,7.7,0,0,0,3.89-1l55-31.89a7.78,7.78,0,0,0-7.8-13.47l-55,31.89A7.79,7.79,0,0,0,435,194.89Z"/><path class="cls-3" d="M519.28,278.72H438.11a7.79,7.79,0,1,0,0,15.57h81.17a7.79,7.79,0,0,0,0-15.57Z"/><path class="cls-3" d="M89,278.72H7.78a7.79,7.79,0,0,0,0,15.57H89a7.79,7.79,0,0,0,0-15.57Z"/><path class="cls-4" d="M285.17,272.66h-17V256.13a4.24,4.24,0,0,0-8.47,0v20.76a4.24,4.24,0,0,0,4.23,4.24h17v8.62h-29a4.24,4.24,0,0,0,0,8.47h33.26a4.24,4.24,0,0,0,4.24-4.23v-17.1a4.23,4.23,0,0,0-4.24-4.23Z"/><path class="cls-5" d="M259.67,256.13v20.76a4.23,4.23,0,0,0,4.18,4.23V251.9a4.23,4.23,0,0,0-4.18,4.23Z"/><path class="cls-4" d="M257.93,178.74h18v9h-12c-2.33,0-2.67,1.89-2.67,4.23V212c0,2.34.34,4.24,2.67,4.24a4.24,4.24,0,0,0,4.24-4.24V196.26h12a4.23,4.23,0,0,0,4.23-4.24V174.5a4.23,4.23,0,0,0-4.23-4.23H257.93a4.24,4.24,0,0,0,0,8.47Z"/><path class="cls-5" d="M259.67,192V212a4.23,4.23,0,0,0,4.18,4.23V187.79a4.23,4.23,0,0,0-4.18,4.23Z"/><path class="cls-4" d="M278.16,220.38a4.24,4.24,0,0,0,6,0l9.54-9.56,9.88,9.89a4.21,4.21,0,0,0,3,1.25h0a4.21,4.21,0,0,0,3-1.25l15.06-15.11a4.23,4.23,0,0,0,0-6l-10.15-10.17L326,178a4.24,4.24,0,1,0-6-6l-14.51,14.49a4.23,4.23,0,0,0,0,6l10.16,10.19-9.08,9.11-9.87-9.89a4.27,4.27,0,0,0-3-1.25h0a4.21,4.21,0,0,0-3,1.25l-12.55,12.55a4.23,4.23,0,0,0,0,6Z"/><path class="cls-5" d="M250.22,248.4a4.23,4.23,0,0,0-6,0l-18,18a4.23,4.23,0,0,0,0,6l6.56,6.57-4.65,4.66-8-8a4.23,4.23,0,0,0-3-1.25h0a4.26,4.26,0,0,0-3,1.24L200.69,289.1a4.24,4.24,0,0,0,6,6l10.46-10.46,8,8a4.25,4.25,0,0,0,3,1.24h0a4.22,4.22,0,0,0,3-1.24L241.75,282a4.23,4.23,0,0,0,0-6l-6.56-6.57,15-15.05a4.23,4.23,0,0,0,0-6Z"/><path class="cls-4" d="M317.63,281.81l4.18-4.19a4.25,4.25,0,0,0,0-6L311.19,261a4.25,4.25,0,0,0-6,0l-4.52,4.53-17.15-17.17a4.23,4.23,0,0,0-6,6l20.15,20.18a4.26,4.26,0,0,0,3,1.24h0a4.26,4.26,0,0,0,3-1.24l4.51-4.53,4.64,4.65-4.18,4.2a4.23,4.23,0,0,0,0,6l11.06,11.06a4.23,4.23,0,1,0,6-6Z"/><path class="cls-5" d="M217,195.89a4.24,4.24,0,0,0,6,0l5.24-5.25,5.1,5.11-4.16,4.18a4.23,4.23,0,0,0,0,6l14.4,14.41a4.23,4.23,0,1,0,6-6l-11.41-11.43,4.16-4.17a4.23,4.23,0,0,0,0-6l-11.07-11.1a4.23,4.23,0,0,0-6,0l-.16.18L225,182,220,186.9l-9.71-9.71a4.24,4.24,0,1,0-6,6Z"/><path class="cls-6" d="M323.61,182.69a8.48,8.48,0,1,1,8.47-8.48A8.49,8.49,0,0,1,323.61,182.69Z"/><path class="cls-6" d="M323.55,302.26a8.47,8.47,0,1,1,8.46-8.47A8.47,8.47,0,0,1,323.55,302.26Z"/><path class="cls-7" d="M255,302.21a8.48,8.48,0,1,1,8.46-8.48A8.48,8.48,0,0,1,255,302.21Z"/><path class="cls-7" d="M203.44,300.31a8.47,8.47,0,1,1,8.46-8.47A8.47,8.47,0,0,1,203.44,300.31Z"/><path class="cls-7" d="M203.46,183.62a8.48,8.48,0,1,1,8.46-8.48A8.48,8.48,0,0,1,203.46,183.62Z"/><path class="cls-8" d="M306.35,226.79l-24.06-14.06a36.63,36.63,0,0,0-36.88,0l-24.06,14.06a8.38,8.38,0,0,0,0,14.46l24,14.08a36.59,36.59,0,0,0,37,0l24-14.08a8.38,8.38,0,0,0,0-14.46Z"/><path class="cls-9" d="M245.41,212.73l-24.06,14.06a8.38,8.38,0,0,0,0,14.46l24,14.08a36.53,36.53,0,0,0,18.48,5h0V207.75a36.53,36.53,0,0,0-18.44,5Z"/><path class="cls-10" d="M263.85,222.34a11.71,11.71,0,1,1,0,23.41v6.12a28.11,28.11,0,0,0,14.2-3.85l23.89-14-23.92-14a28.08,28.08,0,0,0-14.17-3.83h0Z"/><path class="cls-10" d="M263.85,237.82a3.78,3.78,0,0,0,0-7.56Z"/><path class="cls-10" d="M260.07,234a3.79,3.79,0,0,0,3.78,3.78v-7.56a3.79,3.79,0,0,0-3.78,3.78Z"/><path class="cls-10" d="M226.23,234l23.42,14a28.08,28.08,0,0,0,14.2,3.85v-6.12a11.71,11.71,0,1,1,0-23.41v-6.12a28.05,28.05,0,0,0-14.17,3.83Z"/><circle class="cls-11" cx="263.88" cy="234.06" r="25.56"/><path class="cls-12" d="M238.29,234a25.59,25.59,0,0,0,25.56,25.56V208.48A25.59,25.59,0,0,0,238.29,234Z"/><circle class="cls-13" cx="263.85" cy="234.04" r="7.74"/><path class="cls-14" d="M256.11,234a7.73,7.73,0,0,0,7.74,7.74V226.3a7.74,7.74,0,0,0-7.74,7.74Z"/><path class="cls-15" d="M263.85,245.75A11.71,11.71,0,1,1,275.56,234,11.72,11.72,0,0,1,263.85,245.75Zm0-15.49a3.78,3.78,0,1,0,3.78,3.78A3.79,3.79,0,0,0,263.85,230.26Z"/><path class="cls-16" d="M260.07,234a3.79,3.79,0,0,1,3.78-3.78v-7.92a11.71,11.71,0,1,0,0,23.41v-7.93a3.79,3.79,0,0,1-3.78-3.78Z"/><path class="cls-7" d="M263.85,216.22A28.08,28.08,0,0,1,278,220.05l23.92,14-23.89,14a28.11,28.11,0,0,1-28.4,0l-23.89-14,23.92-14a28.05,28.05,0,0,1,14.17-3.83m0-8.47a36.56,36.56,0,0,0-18.44,5l-24.06,14.06a8.38,8.38,0,0,0,0,14.46l24,14.08a36.59,36.59,0,0,0,37,0l24-14.08a8.38,8.38,0,0,0,0-14.46l-24.06-14.06a36.56,36.56,0,0,0-18.44-5Z"/><path class="cls-17" d="M263.85,251.87a28.05,28.05,0,0,1-14.2-3.85l-23.89-14,23.92-14a28.05,28.05,0,0,1,14.17-3.83v-8.47a36.53,36.53,0,0,0-18.44,5l-24.06,14.06a8.38,8.38,0,0,0,0,14.46l24,14.08a36.53,36.53,0,0,0,18.48,5Z"/><path class="cls-7" d="M256,182.91a8.47,8.47,0,1,1,8.47-8.47A8.48,8.48,0,0,1,256,182.91Z"/></g></g></svg>