<svg id="Layer_1" height="512" viewBox="0 0 512 512" width="512" xmlns="http://www.w3.org/2000/svg" data-name="Layer 1"><path d="m93.559 110.743h-20a23.272 23.272 0 0 0 -23.247 23.246v204.975h20v-204.975a23.272 23.272 0 0 1 23.247-23.246z" fill="#d4e1f4"/><path d="m70.312 371.666v-20.7h-20v20.7a23.273 23.273 0 0 0 23.247 23.247h20a23.273 23.273 0 0 1 -23.247-23.247z" fill="#d4e1f4"/><path d="m438.441 98.744h-107.749a6 6 0 0 0 0 12h107.749a23.272 23.272 0 0 1 23.247 23.246v204.975h-411.376v-204.975a23.272 23.272 0 0 1 23.247-23.246h107.75a6 6 0 0 0 0-12h-107.75a35.287 35.287 0 0 0 -35.247 35.246v237.677a35.286 35.286 0 0 0 35.247 35.246h120.493v71.831h-27.941a6 6 0 0 0 0 12h185.041a6 6 0 0 0 0-12h-33.2v-71.831h120.489a35.286 35.286 0 0 0 35.247-35.246v-237.677a35.287 35.287 0 0 0 -35.247-35.246zm-132.493 380h-99.9v-71.831h99.9zm132.493-83.831h-364.882a23.272 23.272 0 0 1 -23.247-23.246v-20.7h411.376v20.7a23.272 23.272 0 0 1 -23.247 23.246z" fill="#0635c9"/><g fill="#1ae5be"><path d="m382.4 22.468a29.5 29.5 0 0 0 -28.959 22.955h-67.598v-18.167a6 6 0 0 0 -6-6h-48.333a6 6 0 0 0 -6 6v18.167h-68.2a29.17 29.17 0 0 0 -28.356-23.6c-15.965-.003-28.954 13.277-28.954 29.6s12.989 29.6 28.955 29.6a29.169 29.169 0 0 0 28.356-23.6h55.089a84.666 84.666 0 0 0 -41.35 72.947 6 6 0 0 0 12 0 72.7 72.7 0 0 1 42.457-66.3v11.519a6 6 0 0 0 6 6h48.333a6 6 0 0 0 6-6v-11.816a72.576 72.576 0 0 1 43.1 66.6 6 6 0 0 0 12 0 84.245 84.245 0 0 0 -16.879-50.829 85.738 85.738 0 0 0 -24.561-22.121h53.94a29.5 29.5 0 0 0 28.96 22.955c16.324 0 29.6-12.989 29.6-28.955s-13.279-28.955-29.6-28.955zm-253.445 46.557c-9.349 0-16.955-7.9-16.955-17.6s7.606-17.6 16.955-17.6 16.954 7.9 16.954 17.6-7.609 17.6-16.954 17.6zm108.555.564v-12.478a5.978 5.978 0 0 0 .035-3.756c-.01-.031-.024-.061-.035-.092v-20.007h36.333v19.673c-.031.087-.069.171-.1.26a5.967 5.967 0 0 0 .1 3.829v12.571zm144.89-1.211c-9.706 0-17.6-7.607-17.6-16.955s7.9-16.955 17.6-16.955 17.6 7.606 17.6 16.955-7.9 16.955-17.6 16.955z"/><path d="m191.021 163.559a72.556 72.556 0 0 1 -6.163-16.979 6 6 0 0 0 -11.7 2.656 84.527 84.527 0 0 0 7.185 19.791 6 6 0 1 0 10.681-5.468z"/><path d="m333.279 147.677a6 6 0 0 0 -7.488 3.99 72.543 72.543 0 0 1 -7.379 16.488 6 6 0 1 0 10.258 6.227 84.621 84.621 0 0 0 8.6-19.217 6 6 0 0 0 -3.991-7.488z"/><path d="m308.956 196.769a85.223 85.223 0 0 0 6.66-5.885 6 6 0 1 0 -8.422-8.547c-1.611 1.587-3.305 3.1-5.06 4.533l-41.811-60.67a6 6 0 0 0 -9.927.067l-40.553 60.583a73.459 73.459 0 0 1 -8.656-8.345 6 6 0 0 0 -9.014 7.922 85.475 85.475 0 0 0 10.969 10.435l-12.054 18.008a6 6 0 0 0 -.445 5.887l28.07 59.829a5.966 5.966 0 0 0 -2.56 4.984l.388 31.735a6 6 0 0 0 6 5.926h.039l68.729-.431a6 6 0 0 0 5.962-6.073l-.389-31.735a5.993 5.993 0 0 0 -2.765-4.975l27.274-60.081a6 6 0 0 0 -.524-5.885zm-53.016 21.69h.078a12.239 12.239 0 0 1 .078 24.477h-.079a12.239 12.239 0 0 1 -.077-24.477zm-27.472 92.735-.239-19.464a5.991 5.991 0 0 0 1.416-.28l53.642-.337a5.942 5.942 0 0 0 1.671.278l.238 19.447zm52.874-32.069-49.912.314-28.484-60.71 46.56-69.557.364 58.078a24.239 24.239 0 0 0 6.146 47.686h.154a24.238 24.238 0 0 0 5.7-47.759l-.364-58.114 34.294 49.759 13.256 19.234z"/></g></svg>