<svg xmlns="http://www.w3.org/2000/svg" xmlns:xlink="http://www.w3.org/1999/xlink" viewBox="0 0 1690.29 1150.32"><defs><style>.cls-1{fill:#fff2e1;}.cls-2{fill:url(#linear-gradient);}.cls-3{opacity:0.2;}.cls-4{fill:#6583fe;}.cls-5{fill:#ff7eb8;}.cls-6{fill:#ff5ba8;}.cls-7{fill:#8399fe;}.cls-8{fill:#d2deff;}.cls-9{fill:#fff;}.cls-10{fill:#02ffb3;}.cls-11{fill:#2626bc;}.cls-12{fill:#01eca5;}.cls-13{fill:url(#linear-gradient-2);}.cls-14{fill:#6e2faf;}.cls-15{fill:#878787;}.cls-16,.cls-29{fill:none;stroke:#6e2faf;stroke-linecap:round;stroke-linejoin:round;}.cls-16{stroke-width:4.73px;}.cls-17{fill:url(#linear-gradient-3);}.cls-18{fill:#eb780a;}.cls-19{fill:url(#linear-gradient-4);}.cls-20{fill:#6b004d;}.cls-21{fill:url(#linear-gradient-5);}.cls-22{fill:#1f003f;}.cls-23{fill:url(#linear-gradient-6);}.cls-24{fill:#00995e;}.cls-25{fill:#2f2e41;}.cls-26{fill:#471e00;}.cls-27{fill:#ffb8b8;}.cls-28{fill:#fed385;}.cls-29{stroke-width:4px;}</style><linearGradient id="linear-gradient" x1="247.95" y1="476.73" x2="382.3" y2="554.3" gradientTransform="matrix(1, 0, 0, -1, 0, 1206)" gradientUnits="userSpaceOnUse"><stop offset="0" stop-color="#dcfdee" stop-opacity="0"/><stop offset="0.63" stop-color="#d2f3e4"/></linearGradient><linearGradient id="linear-gradient-2" x1="1098.83" y1="347.07" x2="1233.17" y2="424.63" xlink:href="#linear-gradient"/><linearGradient id="linear-gradient-3" x1="1104.53" y1="639.18" x2="1238.88" y2="716.75" xlink:href="#linear-gradient"/><linearGradient id="linear-gradient-4" x1="256.64" y1="801.8" x2="390.98" y2="879.36" xlink:href="#linear-gradient"/><linearGradient id="linear-gradient-5" x1="711.49" y1="725.87" x2="821.34" y2="789.29" xlink:href="#linear-gradient"/><linearGradient id="linear-gradient-6" x1="710.24" y1="418.69" x2="822.4" y2="483.44" xlink:href="#linear-gradient"/></defs><title>webheadi_1__1</title><g id="Layer_2" data-name="Layer 2"><g id="Layer_1-2" data-name="Layer 1"><path class="cls-1" d="M306.55,861c64.32,206.92,407,255.85,581.23,280.73,129.61,18.5,164.49,4.47,181-17C1130.28,1045,948.58,848.49,991,800.9c66.39-74.45,554.18,358.37,672.54,262.1,85.73-69.74-47.64-396.55-216-620C1266.45,202.65,984.3,1.49,890.6,66.92,818.88,117,915.29,283,833.55,351c-114.1,94.86-364-176.95-631.67-84.67C89.67,305-11.53,402.79,1.06,470c16.58,88.44,220.64,72.32,288.5,217.79C323,759.53,281.91,781.75,306.55,861Z"/><path class="cls-2" d="M372.17,642.82c-42.15-25.69-107.76-2.26-115.4,16.26-10.21,24.78,7,29,10.17,49.32,2.57,16.29-13.43,31.89-4.3,46.27,9.94,15.67,42.91,11.73,55.44,4.32,22.94-13.56,11.37-29.4,22.23-49.16,10.34-18.83,30.51-11.19,42.25-26.25,11.16-14.31,3.76-32.13-10.39-40.76Z"/><g class="cls-3"><path class="cls-4" d="M369,653.73a5.64,5.64,0,0,0-5.48,4.33H326.85v-2.14a2.63,2.63,0,0,0-2.62-2.63h-6.92a2.63,2.63,0,0,0-2.62,2.63v2.14H278a5.65,5.65,0,1,0,0,2.63h29.39a35.38,35.38,0,0,0-22,32.27h-2.15a2.63,2.63,0,0,0-2.63,2.63v6.91a2.62,2.62,0,0,0,2.63,2.62h6.91a2.62,2.62,0,0,0,2.62-2.62v-6.91a2.62,2.62,0,0,0-2.62-2.63h-2.14a32.78,32.78,0,0,1,26.64-31.71v1.58a2.62,2.62,0,0,0,2.62,2.62h6.92a2.62,2.62,0,0,0,2.62-2.62v-1.58A32.78,32.78,0,0,1,353.49,693h-2.14a2.62,2.62,0,0,0-2.62,2.63v6.91a2.62,2.62,0,0,0,2.62,2.62h6.91a2.62,2.62,0,0,0,2.63-2.62v-6.91a2.63,2.63,0,0,0-2.63-2.63h-2.15a35.38,35.38,0,0,0-22-32.27h29.39a5.64,5.64,0,1,0,5.48-7Z"/><path class="cls-4" d="M342.15,702.84l-18-29.54a3.91,3.91,0,0,0-3.36-1.88h0a3.91,3.91,0,0,0-3.36,1.88l-18,29.54a3.94,3.94,0,0,0,.53,4.79l5.67,5.85h-1.42a3.94,3.94,0,0,0-3.94,3.94v6a3.93,3.93,0,0,0,3.94,3.93h1.2l1.76,17.88a2.62,2.62,0,0,0,2.61,2.37H331.8a2.62,2.62,0,0,0,2.61-2.37l1.76-17.88h1.2a3.93,3.93,0,0,0,3.94-3.93v-6a3.94,3.94,0,0,0-3.94-3.94H336l5.67-5.85a4,4,0,0,0,.53-4.79Z"/></g><path class="cls-5" d="M335.18,719l-2.41,22.94h-24L306.36,719Z"/><path class="cls-6" d="M335.18,719l-.69,6.55H307.05l-.69-6.55Z"/><path class="cls-6" d="M290.19,698.56h-6.91a1.32,1.32,0,0,1-1.32-1.31v-6.91a1.32,1.32,0,0,1,1.32-1.32h6.91a1.32,1.32,0,0,1,1.31,1.32v6.91A1.31,1.31,0,0,1,290.19,698.56Z"/><path class="cls-6" d="M358.26,698.56h-6.91a1.31,1.31,0,0,1-1.31-1.31v-6.91a1.32,1.32,0,0,1,1.31-1.32h6.91a1.32,1.32,0,0,1,1.32,1.32v6.91A1.32,1.32,0,0,1,358.26,698.56Z"/><circle class="cls-7" cx="272.54" cy="654.12" r="4.33"/><circle class="cls-7" cx="369" cy="654.12" r="4.33"/><path class="cls-8" d="M327.8,714.76l12.87-13.3a2.61,2.61,0,0,0,.36-3.19l-18-29.53a2.62,2.62,0,0,0-4.48,0l-18,29.53a2.61,2.61,0,0,0,.36,3.19l12.87,13.3Z"/><path class="cls-9" d="M319.46,690h2.62v27.68h-2.62Z"/><path class="cls-10" d="M337.37,720.8h-33.2a2.62,2.62,0,0,1-2.63-2.62v-6a2.62,2.62,0,0,1,2.63-2.62h33.2a2.62,2.62,0,0,1,2.63,2.62v6A2.62,2.62,0,0,1,337.37,720.8Z"/><circle class="cls-9" cx="320.77" cy="688.74" r="3.81"/><path class="cls-6" d="M324.23,658.89h-6.92a1.31,1.31,0,0,1-1.31-1.31v-6.91a1.32,1.32,0,0,1,1.31-1.32h6.92a1.32,1.32,0,0,1,1.31,1.32v6.91A1.31,1.31,0,0,1,324.23,658.89Z"/><path class="cls-11" d="M369,648.48a5.64,5.64,0,0,0-5.48,4.33H326.85v-2.14a2.63,2.63,0,0,0-2.62-2.63h-6.92a2.63,2.63,0,0,0-2.62,2.63v2.14H278a5.65,5.65,0,1,0,0,2.63h29.39a35.4,35.4,0,0,0-22,32.27h-2.14a2.63,2.63,0,0,0-2.63,2.63v6.91a2.62,2.62,0,0,0,2.63,2.62h6.91a2.62,2.62,0,0,0,2.62-2.62v-6.91a2.62,2.62,0,0,0-2.62-2.63h-2.14A32.76,32.76,0,0,1,314.69,656v1.57a2.62,2.62,0,0,0,2.62,2.62h6.92a2.62,2.62,0,0,0,2.62-2.62V656a32.76,32.76,0,0,1,26.64,31.7h-2.14a2.62,2.62,0,0,0-2.62,2.63v6.91a2.62,2.62,0,0,0,2.62,2.62h6.91a2.62,2.62,0,0,0,2.63-2.62v-6.91a2.63,2.63,0,0,0-2.63-2.63h-2.15a35.38,35.38,0,0,0-22-32.27h29.39a5.64,5.64,0,1,0,5.48-7Zm-78.81,48.77h-6.91v-6.91h6.91Zm-17.65-40.11a3,3,0,1,1,3-3A3,3,0,0,1,272.54,657.14Zm85.72,40.11h-6.91v-6.91h6.91Zm-40.95-39.67v-6.91h6.92v6.91Zm51.69-.44a3,3,0,1,1,3-3A3,3,0,0,1,369,657.14Z"/><path class="cls-11" d="M339.3,692.91a1.31,1.31,0,0,0-1.81-.43,1.3,1.3,0,0,0-.43,1.8l2.85,4.68a1.3,1.3,0,0,1-.18,1.59l-7.44,7.68h-23l-7.44-7.68a1.3,1.3,0,0,1-.18-1.59l18-29.54a1.31,1.31,0,0,1,2.24,0l10.52,17.24a1.31,1.31,0,1,0,2.24-1.37l-10.52-17.24a3.94,3.94,0,0,0-6.72,0l-18,29.54a4,4,0,0,0,.53,4.79l5.67,5.85h-1.42a4,4,0,0,0-3.94,3.94v6a3.94,3.94,0,0,0,3.94,3.93h1.2l2.09,19.94a1.31,1.31,0,1,0,2.61-.27L308,722.11h3.83a1.31,1.31,0,1,0,0-2.62h-7.67a1.32,1.32,0,0,1-1.32-1.31v-6a1.32,1.32,0,0,1,1.32-1.31h33.2a1.31,1.31,0,0,1,1.31,1.31v6a1.31,1.31,0,0,1-1.31,1.31h-16.6a1.31,1.31,0,0,0-1.31,1.31v21.12a1.31,1.31,0,0,0,2.62,0V722.11h11.45l-2.07,19.67a1.31,1.31,0,0,0,1.17,1.44h.14a1.31,1.31,0,0,0,1.3-1.18l2.1-19.94h1.2a3.94,3.94,0,0,0,3.94-3.93v-6a4,4,0,0,0-3.94-3.94H336l5.67-5.85a4,4,0,0,0,.53-4.79Z"/><path class="cls-4" d="M282,720.29a1.31,1.31,0,0,1-1.31-1.31,1.57,1.57,0,0,0-1.57-1.57,1.32,1.32,0,1,1,0-2.63,1.57,1.57,0,0,0,1.57-1.57,1.32,1.32,0,1,1,2.63,0,1.57,1.57,0,0,0,1.57,1.57,1.32,1.32,0,0,1,0,2.63,1.57,1.57,0,0,0-1.57,1.57A1.31,1.31,0,0,1,282,720.29Z"/><path class="cls-12" d="M367.23,677.87a1.31,1.31,0,0,1-1.31-1.31,1.57,1.57,0,0,0-1.58-1.57,1.32,1.32,0,0,1,0-2.63,1.57,1.57,0,0,0,1.58-1.57,1.31,1.31,0,1,1,2.62,0,1.57,1.57,0,0,0,1.58,1.57,1.32,1.32,0,0,1,0,2.63,1.57,1.57,0,0,0-1.58,1.57A1.3,1.3,0,0,1,367.23,677.87Z"/><path class="cls-5" d="M348.86,740.53a1.32,1.32,0,0,1-1.32-1.32,1.57,1.57,0,0,0-1.57-1.57,1.32,1.32,0,0,1,0-2.63,1.57,1.57,0,0,0,1.57-1.57,1.32,1.32,0,0,1,2.63,0,1.57,1.57,0,0,0,1.57,1.57,1.32,1.32,0,1,1,0,2.63,1.57,1.57,0,0,0-1.57,1.57A1.32,1.32,0,0,1,348.86,740.53Z"/><path class="cls-5" d="M272.67,680.52a1.31,1.31,0,0,1-.93-2.24l2.62-2.62a1.31,1.31,0,0,1,1.86,1.85l-2.63,2.63A1.31,1.31,0,0,1,272.67,680.52Z"/><path class="cls-4" d="M359.58,721.61a1.32,1.32,0,0,1-.93-2.24l2.62-2.63a1.32,1.32,0,0,1,1.86,1.86l-2.63,2.62A1.28,1.28,0,0,1,359.58,721.61Z"/><path class="cls-13" d="M1223,772.49c-42.14-25.69-107.76-2.26-115.39,16.26-10.21,24.78,7,29,10.17,49.32,2.56,16.29-13.44,31.89-4.3,46.27,9.94,15.66,42.9,11.73,55.43,4.32,22.94-13.57,11.37-29.4,22.23-49.17,10.35-18.82,30.52-11.19,42.26-26.24,11.15-14.32,3.75-32.13-10.4-40.76Z"/><path class="cls-14" d="M1145.15,800.7a3.79,3.79,0,0,1-3.79-3.78V783.67a3.79,3.79,0,1,1,7.57,0v13.25A3.78,3.78,0,0,1,1145.15,800.7Z"/><path class="cls-14" d="M1163.13,800.7a3.79,3.79,0,0,1-3.79-3.78V783.67a3.79,3.79,0,1,1,7.58,0v13.25A3.79,3.79,0,0,1,1163.13,800.7Z"/><path class="cls-14" d="M1181.11,800.7a3.78,3.78,0,0,1-3.78-3.78V783.67a3.79,3.79,0,1,1,7.57,0v13.25A3.79,3.79,0,0,1,1181.11,800.7Z"/><path class="cls-15" d="M1184.9,788.4h-43.54A10.41,10.41,0,0,0,1131,798.81V849a10.41,10.41,0,0,0,10.41,10.41h27.94l.83-4.66a10.56,10.56,0,0,1,2.88-5.56l22.3-22.26V798.81a10.41,10.41,0,0,0-10.41-10.41Z"/><path class="cls-9" d="M1172.59,829.09h-26.5a3.79,3.79,0,0,1,0-7.57h26.5a3.79,3.79,0,1,1,0,7.57Z"/><path class="cls-9" d="M1161.24,814h-15.15a3.79,3.79,0,0,1,0-7.57h15.15a3.79,3.79,0,0,1,0,7.57Z"/><path class="cls-14" d="M1178.38,870.74a2.85,2.85,0,0,1-2.8-3.34l2-11.37a2.83,2.83,0,0,1,.79-1.52l28.11-28.1c3.45-3.46,6.84-2.53,8.7-.67l4.68,4.68a6.64,6.64,0,0,1,0,9.37l-28.11,28.11a2.76,2.76,0,0,1-1.51.78l-11.38,2a2.72,2.72,0,0,1-.49,0Zm11.37-4.85h0Z"/><path class="cls-16" d="M731.69,207V257.8A63.15,63.15,0,0,1,668.54,321H437.87a63.15,63.15,0,0,0-63.15,63.15v25.44a63.15,63.15,0,0,0,63.15,63.15H1041.3a63.15,63.15,0,0,1,63.15,63.15v28.94a63.15,63.15,0,0,1-63.15,63.15H437.87a63.15,63.15,0,0,0-63.15,63.15v12.28a63.15,63.15,0,0,0,63.15,63.15H1041.3a63.15,63.15,0,0,1,63.15,63.15h0a63.16,63.16,0,0,1-63.15,63.15H802.73A63.15,63.15,0,0,0,739.58,956v105.25"/><circle class="cls-14" cx="740.06" cy="1087.48" r="13.25"/><circle class="cls-9" cx="1103.5" cy="825.31" r="13.25"/><circle class="cls-9" cx="374.72" cy="698.48" r="13.25"/><circle class="cls-9" cx="1104.45" cy="548.94" r="13.25"/><circle class="cls-9" cx="374.72" cy="393.72" r="13.25"/><path class="cls-17" d="M1228.74,480.38c-42.14-25.69-107.75-2.26-115.39,16.26-10.21,24.78,7,29,10.17,49.31,2.56,16.3-13.43,31.9-4.3,46.28,9.94,15.66,42.91,11.73,55.44,4.32,22.93-13.57,11.36-29.41,22.23-49.17,10.34-18.82,30.51-11.19,42.25-26.25,11.15-14.31,3.75-32.13-10.4-40.75Z"/><path class="cls-18" d="M1164.66,502.23H1173L1202,570h-10.73l-6.8-16.76h-32.27l-6.7,16.76h-10.73Zm16.47,43-12.64-31.13h-.19l-12.83,31.13Z"/><path class="cls-18" d="M1213.59,502a6.32,6.32,0,1,1-6.32,6.32A6.38,6.38,0,0,1,1213.59,502Zm-4.31,22.6h8.62V570h-8.62Z"/><path class="cls-19" d="M380.85,317.76C338.71,292.07,273.09,315.5,265.46,334c-10.21,24.78,7,29,10.17,49.32,2.56,16.29-13.44,31.89-4.3,46.27,9.94,15.66,42.9,11.73,55.43,4.32,22.94-13.57,11.37-29.41,22.23-49.17,10.35-18.82,30.52-11.19,42.26-26.25,11.15-14.31,3.75-32.13-10.4-40.75Z"/><path class="cls-20" d="M301.54,373.42,282,345.79h10.11l15.13,22.36,15-22.36h9.87l-19.41,27.55L334,404H323.66L307,378.76,290.19,404h-9.78Z"/><path class="cls-20" d="M378.5,404h-7.4v-5.59h-.16c-2.88,4.19-8.31,6.58-13.57,6.58-12.09,0-19.82-9-19.82-20.48,0-11.68,7.81-20.48,19.82-20.48,5.59,0,10.94,2.55,13.57,6.58h.16V341.84h7.4Zm-7.4-19.49c0-7.9-4.93-13.57-12.83-13.57s-12.82,5.67-12.82,13.57,4.93,13.57,12.82,13.57S371.1,392.41,371.1,384.52Z"/><path class="cls-21" d="M813.06,409.45c-34.46-21-88.11-1.85-94.36,13.29-8.35,20.26,5.71,23.73,8.32,40.33,2.09,13.32-11,26.08-3.52,37.84,8.13,12.8,35.09,9.59,45.33,3.53,18.76-11.1,9.3-24.05,18.18-40.21,8.46-15.39,25-9.15,34.55-21.46,9.12-11.7,3.07-26.27-8.5-33.32Z"/><path class="cls-22" d="M745,423.39h7.63l26.57,62.08h-9.83l-6.22-15.34H733.55l-6.14,15.34h-9.82ZM760,462.76l-11.58-28.5h-.17l-11.75,28.5Z"/><path class="cls-22" d="M791.15,467.58c0,7.28,6.75,12.1,14,12.1,4.83,0,8.33-2.45,11.4-6.22l6,4.56c-4.38,5.7-10.43,8.5-18.41,8.5-13.15,0-21.4-9.47-21.4-21.83s9-21.83,21.49-21.83c14.64,0,20.25,11.22,20.25,21.92v2.8Zm24.91-6.31c-.18-6.93-4-12.1-12-12.1-7.8,0-12.89,6.58-12.89,12.1Z"/><path class="cls-23" d="M813.94,715.15c-35.19-21.45-90-1.89-96.33,13.57-8.53,20.69,5.82,24.23,8.49,41.17,2.14,13.6-11.22,26.63-3.59,38.63,8.3,13.08,35.82,9.79,46.28,3.61,19.14-11.33,9.49-24.55,18.55-41,8.64-15.71,25.48-9.34,35.28-21.91,9.31-11.94,3.13-26.82-8.68-34Z"/><path class="cls-24" d="M724.06,724.24h25.85c18.79,0,23.57,11.32,23.57,20.56s-4.78,20.55-23.57,20.55H734v32.39h-10Zm10,32.39h13.08c7.89,0,15.78-1.87,15.78-11.83S755,733,747.11,733H734Z"/><path class="cls-24" d="M809.39,760.89A12.48,12.48,0,0,0,799.32,756c-4.36,0-8.21,2-8.21,5.5,0,5.92,8.41,6.75,12.57,7.68,8.09,2,14.32,5.09,14.32,14.33,0,11.1-10.17,15.46-19.93,15.46-8.1,0-14.12-2.07-19-8.72l7.06-5.81c3,3,6.54,5.81,11.94,5.81,4.78,0,10-2,10-6.22,0-5.61-7.79-6.65-11.84-7.58-8-2-15.05-4.57-15.05-14,0-10.27,9.45-15.15,18.69-15.15,6.53,0,13.28,2.28,16.81,8.09Z"/><path class="cls-14" d="M585.74,152.82v15.86c-3.14,1.91-8.27,2.95-12.18,2.95-10.9,0-17.22-7.77-17.22-16.9,0-9.54,6.95-16.9,16.77-16.9,5.9,0,9.49,1.59,12,4.18L582,145.33a12.16,12.16,0,0,0-8.9-3.41c-7.36,0-12.13,5.77-12.13,12.81a12.41,12.41,0,0,0,12.49,12.81,17,17,0,0,0,7.91-1.68v-9h-7.14v-4.09Z"/><path class="cls-14" d="M592.64,149.28h4.09v3.32h.09a7.27,7.27,0,0,1,6.45-3.87,5.6,5.6,0,0,1,1.82.28l-.18,4.4a8,8,0,0,0-2-.32c-4,0-6.18,2.19-6.18,6.91v10.81h-4.09Z"/><path class="cls-14" d="M609.54,151.91a12.72,12.72,0,0,1,8.54-3.18c6.36,0,9,3.46,9,7.18v11a32.25,32.25,0,0,0,.18,3.9h-3.63c-.09-1.09-.14-2.18-.14-3.27h-.09c-1.82,2.77-4.27,3.82-7.54,3.82-4,0-7.45-2.27-7.45-6.45,0-5.55,5.31-7.45,11.85-7.45h3v-.91c0-2.23-1.63-4.55-5.13-4.55-3.14,0-4.64,1.32-6.14,2.46Zm11.54,8.55c-3.86,0-8.59.68-8.59,4.13,0,2.45,1.82,3.5,4.64,3.5,4.54,0,6.13-3.36,6.13-6.27v-1.36Z"/><path class="cls-14" d="M633,149.28h4.09v3.09h.09a9.2,9.2,0,0,1,7.5-3.64c6.67,0,10.95,5,10.95,11.32s-4.32,11.31-10.95,11.31a9,9,0,0,1-7.5-3.64h-.09v15.91H633Zm4.09,10.77c0,4.36,2.72,7.49,7.09,7.49s7.08-3.13,7.08-7.49-2.72-7.5-7.08-7.5S637.12,155.68,637.12,160.05Z"/><path class="cls-14" d="M660.79,136.47h4.09V152.6H665c1-2.28,3.77-3.87,7.08-3.87,4.18,0,7.82,2.5,7.82,8.23v13.85h-4.09V158.09c0-4-2.32-5.54-4.91-5.54-3.4,0-6,2.18-6,7.18v11.08h-4.09Z"/><path class="cls-14" d="M688.41,138.56a3,3,0,1,1-3,3A3,3,0,0,1,688.41,138.56Zm-2,10.72h4.09v21.53h-4.09Z"/><path class="cls-14" d="M712.35,155a6.84,6.84,0,0,0-5.36-2.4c-4.45,0-6.72,3.58-6.72,7.63s2.72,7.31,7,7.31a6.37,6.37,0,0,0,5.22-2.4l2.91,2.9a10.58,10.58,0,0,1-8.18,3.32c-6.63,0-11.27-4.59-11.27-11.22s4.55-11.36,11.27-11.36a11,11,0,0,1,8.27,3.41Z"/><path class="cls-14" d="M731.79,138.65H743c13.58,0,16.9,10.13,16.9,16.08,0,8.22-6.14,16.08-17.63,16.08h-10.5Zm4.37,28.08h5.49c7.36,0,13.63-4,13.63-12,0-4.09-2.13-12-12.58-12h-6.54Z"/><path class="cls-14" d="M768.23,161.55c0,3.77,3.5,6.27,7.27,6.27,2.5,0,4.31-1.28,5.9-3.23l3.09,2.36c-2.27,3-5.4,4.41-9.54,4.41-6.81,0-11.08-4.91-11.08-11.31A10.91,10.91,0,0,1,775,148.73c7.59,0,10.49,5.82,10.49,11.36v1.46Zm12.9-3.28C781,154.69,779,152,774.91,152a6.64,6.64,0,0,0-6.68,6.27Z"/><path class="cls-14" d="M801.85,154.69a5.45,5.45,0,0,0-4.41-2.14c-1.91,0-3.59.86-3.59,2.41,0,2.59,3.68,2.95,5.5,3.36,3.54.86,6.27,2.23,6.27,6.27,0,4.86-4.45,6.77-8.72,6.77-3.55,0-6.18-.91-8.32-3.82l3.09-2.54a7.14,7.14,0,0,0,5.23,2.54c2.09,0,4.36-.86,4.36-2.72,0-2.46-3.41-2.91-5.18-3.32-3.5-.86-6.59-2-6.59-6.13,0-4.5,4.13-6.64,8.18-6.64,2.86,0,5.81,1,7.36,3.55Z"/><path class="cls-14" d="M812.93,138.56a3,3,0,1,1-3,3A3,3,0,0,1,812.93,138.56Zm-2,10.72H815v21.53h-4.09Z"/><path class="cls-14" d="M843.05,170.63c0,6.5-4.72,11.09-11.76,11.09a14.6,14.6,0,0,1-10.55-3.86l2.78-3.46a10,10,0,0,0,7.67,3.5c6.09,0,7.77-3.81,7.77-7.45v-3.18h-.13a8.49,8.49,0,0,1-7.45,3.82,10.69,10.69,0,0,1-11-11c0-6.36,4.27-11.32,11-11.32a9.19,9.19,0,0,1,7.49,3.64H839v-3.09h4.09Zm-18.26-10.58c0,4.36,2.72,7.22,7.09,7.22s7.08-2.86,7.08-7.22-2.72-7.5-7.08-7.5S824.79,155.68,824.79,160.05Z"/><path class="cls-14" d="M849.23,149.28h4.09v3.32h.09c1-2.28,3.77-3.87,7.09-3.87,4.18,0,7.81,2.5,7.81,8.23v13.85h-4.09V158.09c0-4-2.31-5.54-4.9-5.54-3.41,0-6,2.18-6,7.18v11.08h-4.09Z"/><path class="cls-14" d="M877.58,161.55c0,3.77,3.5,6.27,7.27,6.27,2.5,0,4.31-1.28,5.9-3.23l3.09,2.36c-2.27,3-5.4,4.41-9.54,4.41-6.81,0-11.08-4.91-11.08-11.31a10.91,10.91,0,0,1,11.13-11.32c7.59,0,10.49,5.82,10.49,11.36v1.46Zm12.9-3.28c-.09-3.58-2.09-6.27-6.22-6.27a6.64,6.64,0,0,0-6.68,6.27Z"/><path class="cls-14" d="M899.75,149.28h4.09v3.32h.09a7.26,7.26,0,0,1,6.45-3.87,5.64,5.64,0,0,1,1.82.28l-.18,4.4a8.15,8.15,0,0,0-2-.32c-4,0-6.18,2.19-6.18,6.91v10.81h-4.09Z"/><path class="cls-25" d="M1598,480.44s0,195.27-30.76,266.16l-70.89,159.16s-45.48-2.67-48.15-21.4l53.5-165.85,32.1-97.64,8-152.47Z"/><path class="cls-25" d="M1553.87,485.79l-12,81.58,8,179.23,4,99s16.05,44.14,10.7,48.15l-10.7,8s-42.8-5.35-44.14-8S1483,689.09,1483,689.09s-52.16-163.18-49.48-165.85,14.71-42.8,14.71-42.8Z"/><path class="cls-26" d="M1563.23,888.37l5.35,30.77s14.72,62.86,0,62.86-41.46-17.39-42.8-28.09,2.68-58.85,2.68-58.85Z"/><path class="cls-26" d="M1495,899.07s10.7,21.4,17.39,24.08,37.14,20.17,19.24,31.49-36.63.61-36.63.61l-61.52-33.44s8-33.44,20.06-36.11S1495,899.07,1495,899.07Z"/><circle class="cls-27" cx="1481.65" cy="136.7" r="48.15"/><path class="cls-27" d="M1521.77,140.71s9.36,61.53,18.73,69.55-20.07,36.11-33.44,34.78S1479,214.27,1479,214.27s4-38.78-2.67-49.48S1521.77,140.71,1521.77,140.71Z"/><path class="cls-28" d="M1511.07,219.62l22.72-21a86.08,86.08,0,0,0,26.77,22.3c17.39,9.36-33.44,105.66-33.44,105.66L1445.53,225s26-17.24,34.38-24Z"/><path class="cls-28" d="M1524.45,301.21s35.84-62.48,32-82.73c0,0,52.3,13.18,55,30.57S1586,329.3,1586,329.3s22.74,159.16,9.36,160.5-147.12,2.67-149.8-4,2.68-26.75-5.35-33.44-17.38-2.68-13.37-13.38,21.4-24.07,16-32.1-6.69-5.35-5.35-10.7-2.68-76.23-2.68-76.23-28.08-77.58-21.4-82.93,41.77-18.53,41.77-18.53Z"/><path class="cls-27" d="M1631.45,509.86s-4,53.5-26.75,50.83,4-60.19,4-60.19Z"/><path class="cls-27" d="M1432.16,508.52s8,32.1,17.39,29.43V500.5l-4-6.69Z"/><path class="cls-25" d="M1520.92,143.63a8.33,8.33,0,0,0-1.38-3.88,6.23,6.23,0,0,0-2.92-1.85,13.14,13.14,0,0,0-15.67,6.72c-1.24,2.69-1.83,6.16-4.54,7.36-3.15,1.39-6.64-1.58-7.88-4.79s-1.27-6.86-2.92-9.88c-1.95-3.58-5.91-5.7-9.9-6.54-3.31-.71-7.36-1.07-8.86-4.11a8.1,8.1,0,0,1-.6-3.67,38.58,38.58,0,0,1,2.39-13.1c-13.1-2.61-24.76,10.17-38.12,10.38a10.07,10.07,0,0,1-4.92-1c-3-1.59-4.25-5.1-5.14-8.34q-1.43-5.16-2.35-10.44l4.28,2a16.77,16.77,0,0,1-1.9-7.37,17.6,17.6,0,0,1,6.58.55l.31-7.67c3.3,4.19,9.89,2.72,14.87.78,9.6-3.75,19.15-7.8,29.22-10s20.88-2.32,30.4,1.61c10,4.12,17.73,12.33,24.53,20.76,3.77,4.67,7.41,9.58,9.45,15.22a37,37,0,0,1-.08,23.55c-2.19,6.86-6.27,15.17-11.76,19.93C1522.09,155,1521.83,148.83,1520.92,143.63Z"/><path class="cls-26" d="M1429.48,233l-17.38,4s-20.07,21.4-21.4,41.46-1.34,120.38-1.34,120.38l25.41,82.92s-2.67,18.73,0,18.73,4-4,4,1.34-6.68,0,0,5.35l13.38,10.7,22.35-29.64s1.72-11.83-2.29-14.5-4-4-2.67-8,4-5.35,2.67-8-5.35-6.69-5.35-9.36,0-5.35-1.34-6.69-10.7-33.44-10.7-33.44l5.35-104.32Z"/><path class="cls-26" d="M1598,239.69l13.37,6.68s21.4,64.2,21.4,120.38,4,93.62,4,93.62,6.68,16.05,4,16.05-5.35,0-2.68,4,4,2.67,2.68,6.68-2.68-2.67-1.34,4,0,9.36-2.67,9.36-2.68,17.39-2.68,17.39l-32.1-12s5.35-6.69,4-9.36a13.28,13.28,0,0,1-1.33-5.35s6.68-1.34,0-4-4-2.67-2.68-10.7,5.35-6.68,1.34-8-28.09-125.73-28.09-125.73Z"/><circle class="cls-25" cx="1511.05" cy="220.06" r="4.01"/><circle class="cls-25" cx="1511.05" cy="233.43" r="4.01"/><line class="cls-29" x1="731.55" y1="56.52" x2="731.55" y2="2"/><line class="cls-29" x1="731.55" y1="71.64" x2="731.55" y2="66.24"/><line class="cls-29" x1="731.55" y1="104" x2="731.55" y2="97"/><line class="cls-29" x1="731.55" y1="87" x2="731.55" y2="80"/><line class="cls-29" x1="731.55" y1="2" x2="719.55" y2="14"/><line class="cls-29" x1="731.55" y1="2" x2="743.55" y2="14"/></g></g></svg>